<svg width="80" height="80" viewBox="0 0 80 80" fill="none" xmlns="http://www.w3.org/2000/svg">
<g clip-path="url(#clip0_105_1421)">
<path fill-rule="evenodd" clip-rule="evenodd" d="M80 50.157C79.2261 52.9881 78.4474 55.8177 77.6792 58.6502C77.0413 61.0014 75.6686 62.1753 73.2414 62.5018C72.9893 62.5356 72.7025 62.8346 72.5605 63.084C71.2353 65.4131 69.3241 66.9339 66.6497 67.3768C63.366 67.9207 60.9899 66.0817 60.6304 62.7658C60.6226 62.6935 60.5942 62.6233 60.557 62.4822C60.3055 62.4822 60.0505 62.4822 59.7957 62.4822C51.4618 62.4822 43.1279 62.4884 34.7941 62.4686C34.2249 62.4673 33.9375 62.6277 33.6667 63.144C32.1531 66.0291 28.8233 67.8649 26.0289 67.415C23.533 67.0128 22.0736 65.4479 21.8314 62.9149C21.8216 62.813 21.8035 62.7119 21.778 62.5289C21.5315 62.5135 21.2835 62.4852 21.0354 62.4844C19.7072 62.4796 18.3787 62.5014 17.0509 62.4762C15.3995 62.445 14.4574 61.3084 14.8567 59.7285C15.5892 56.8302 16.3865 53.9481 17.1774 51.0648C17.3862 50.3032 17.9783 49.9749 18.6572 50.1639C19.2987 50.3423 19.606 50.9477 19.4012 51.7274C18.7476 54.2169 18.077 56.7018 17.4144 59.1889C17.3413 59.4629 17.2772 59.7392 17.1797 60.1318C18.856 60.1318 20.4788 60.1509 22.0997 60.1043C22.2751 60.0993 22.4707 59.7331 22.6041 59.5036C24.1515 56.8434 26.3632 55.2007 29.5198 55.1432C32.3264 55.0921 34.2431 56.8821 34.5146 59.6714C34.5271 59.7986 34.5437 59.9254 34.5631 60.0944C40.4562 60.0944 46.3338 60.0944 52.3218 60.0944C55.0002 50.1012 57.6878 40.0727 60.4053 29.9335C60.0396 29.9127 59.7695 29.8845 59.4995 29.8841C57.2858 29.8804 55.0721 29.8855 52.8586 29.8803C51.8714 29.878 51.403 29.5197 51.3761 28.7736C51.3483 28.0007 51.8641 27.5465 52.8381 27.5423C55.2861 27.5311 57.7342 27.5355 60.1823 27.5392C61.9982 27.542 62.6768 28.1573 62.8646 30.0513C63.1302 30.0513 63.4072 30.0513 63.6844 30.0513C66.2886 30.0513 68.8931 30.0469 71.4974 30.0527C73.8534 30.0579 74.9798 31.194 74.988 33.5626C74.9994 36.9482 75.0189 40.3336 75.005 43.7192C75.0033 44.2226 75.1574 44.5322 75.5719 44.8073C76.4386 45.3828 77.2533 46.0379 78.1261 46.6038C79.0093 47.1764 79.6906 47.8823 80 48.9069C80 49.3237 80 49.7402 80 50.157ZM76.9004 52.5171C76.4868 52.4822 76.1247 52.4827 75.7751 52.4157C75.1247 52.2907 74.7619 51.8792 74.8019 51.207C74.8418 50.5373 75.2352 50.1658 75.9079 50.1284C76.3232 50.1054 76.7524 50.1753 77.1522 50.0918C77.3451 50.0517 77.6457 49.7156 77.6136 49.5805C77.5446 49.2876 77.3472 48.9666 77.1064 48.7832C76.113 48.0263 75.1034 47.2871 74.0573 46.6061C73.6924 46.3686 73.2075 46.2073 72.7746 46.2007C70.3013 46.1629 67.827 46.1933 65.3532 46.1789C62.8756 46.1644 61.5697 44.4821 62.1681 42.0911C62.4207 41.0823 62.7008 40.0807 62.9661 39.0754C63.7041 36.2788 65.2842 35.0685 68.2015 35.0678C69.6536 35.0676 71.106 35.0678 72.6447 35.0678C72.6447 34.552 72.6462 34.1157 72.6444 33.6795C72.6398 32.5049 72.5339 32.397 71.3454 32.3961C68.5329 32.3937 65.7204 32.412 62.9082 32.3815C62.3275 32.3753 62.1152 32.5639 61.9687 33.1207C60.5322 38.5758 59.0618 44.022 57.604 49.4713C57.5539 49.6588 57.5356 49.8546 57.4902 50.118C57.8586 50.118 58.1424 50.118 58.4263 50.118C62.4886 50.1181 66.5509 50.1157 70.6133 50.1199C71.5732 50.1209 72.0615 50.5063 72.0791 51.2453C72.0973 52.0052 71.5695 52.4381 70.5942 52.4609C70.4121 52.4651 70.2296 52.4619 70.0475 52.4619C65.8809 52.4619 61.7143 52.472 57.5478 52.45C56.9915 52.4471 56.7285 52.5867 56.5859 53.1603C56.0589 55.2789 55.4713 57.3828 54.9128 59.4938C54.8629 59.6818 54.8592 59.8818 54.8262 60.1382C56.7448 60.1382 58.5915 60.1183 60.4373 60.151C60.9557 60.1601 61.1977 59.9873 61.4429 59.5283C62.647 57.2721 64.4907 55.7822 67.0155 55.2656C70.9536 54.4596 73.3182 57.0747 73.3348 59.7327C73.3356 59.8467 73.4111 59.9599 73.4554 60.0836C74.3752 59.9137 75.0098 59.4023 75.2519 58.584C75.8416 56.5937 76.3465 54.5783 76.9004 52.5171ZM72.6398 37.4127C70.9391 37.4127 69.3324 37.4007 67.7259 37.4166C66.4897 37.4288 65.6745 38.063 65.341 39.2551C65.0267 40.3784 64.7264 41.5062 64.4378 42.6365C64.2096 43.5316 64.4438 43.8309 65.3861 43.8348C67.5937 43.8444 69.8014 43.8393 72.0091 43.8358C72.2113 43.8354 72.4132 43.8022 72.6398 43.782C72.6398 41.6658 72.6398 39.5932 72.6398 37.4127ZM24.1642 62.5276C24.1384 64.1338 25.2293 65.174 26.901 65.1372C29.3123 65.0841 31.8213 62.8455 32.1545 60.4498C32.3619 58.9586 31.5222 57.7402 30.1289 57.5106C27.3989 57.0605 24.2089 59.7436 24.1642 62.5276ZM68.3558 57.4749C66.0078 57.4638 63.6193 59.4266 63.0768 61.8125C62.6214 63.8156 63.9056 65.3027 65.9403 65.1281C68.1383 64.9394 70.3517 63.0635 70.888 60.9345C71.3893 58.9451 70.32 57.4842 68.3558 57.4749Z" fill="white"/>
<path fill-rule="evenodd" clip-rule="evenodd" d="M48.6893 31.2369C48.6828 41.5474 40.2023 50.0051 29.9285 49.9475C19.6178 49.8899 11.257 41.5044 11.2598 31.2238C11.2626 20.9137 19.7073 12.4936 30.0206 12.5174C40.3019 12.5412 48.6958 20.958 48.6893 31.2369ZM46.3452 31.2676C46.389 22.3268 39.0574 14.9184 30.109 14.8615C21.0664 14.804 13.6427 22.1318 13.6039 31.1533C13.5652 40.1809 20.9221 47.5821 29.9558 47.6036C38.9405 47.625 46.3011 40.2883 46.3452 31.2676Z" fill="white"/>
<path fill-rule="evenodd" clip-rule="evenodd" d="M7.4733 46.3584C9.52604 46.3589 11.5789 46.3451 13.6314 46.3661C14.392 46.3737 14.8405 46.8337 14.8457 47.5033C14.851 48.1698 14.4115 48.613 13.6567 48.6877C13.4507 48.708 13.2415 48.6983 13.0336 48.6983C11.3446 48.6989 9.65568 48.6986 7.96671 48.6986C5.9139 48.6986 3.86124 48.6989 1.80842 48.6983C1.60058 48.6983 1.39127 48.7082 1.1853 48.6869C0.444737 48.6104 -0.0135151 48.1416 0.000319946 47.4904C0.0140733 46.8433 0.491938 46.3713 1.23722 46.3645C3.31575 46.3456 5.39461 46.3579 7.4733 46.3584Z" fill="white"/>
<path fill-rule="evenodd" clip-rule="evenodd" d="M8.70825 51.3687C9.87964 51.3687 11.0511 51.3598 12.2223 51.3716C13.1 51.3806 13.5899 51.8026 13.5942 52.5167C13.5987 53.2323 13.1077 53.698 12.2441 53.7045C9.87541 53.7221 7.50643 53.7209 5.13769 53.7056C4.2797 53.7001 3.76367 53.2346 3.75496 52.5385C3.74601 51.8238 4.28434 51.3775 5.19401 51.3708C6.36539 51.362 7.53678 51.3687 8.70825 51.3687Z" fill="white"/>
<path fill-rule="evenodd" clip-rule="evenodd" d="M9.92635 56.3875C10.3681 56.3872 10.811 56.3654 11.2511 56.3924C11.8824 56.4313 12.2636 56.7956 12.3306 57.4154C12.3981 58.0384 12.0991 58.5698 11.4886 58.6263C10.4629 58.721 9.41642 58.7202 8.39006 58.6296C7.78003 58.5758 7.46338 58.0446 7.52816 57.4292C7.59163 56.8247 7.96265 56.4316 8.60156 56.3929C9.04167 56.3662 9.4847 56.3879 9.92635 56.3875Z" fill="white"/>
<path fill-rule="evenodd" clip-rule="evenodd" d="M28.2012 60.1431C28.8298 60.1612 29.3403 60.6745 29.3427 61.2911C29.3451 61.9266 28.7683 62.4882 28.1345 62.467C27.4808 62.4452 26.9785 61.8876 27.0142 61.2233C27.0483 60.5896 27.5588 60.1247 28.2012 60.1431Z" fill="white"/>
<path fill-rule="evenodd" clip-rule="evenodd" d="M66.965 60.1429C67.6071 60.1287 68.1146 60.595 68.1465 61.2283C68.18 61.8939 67.6764 62.4499 67.0246 62.4666C66.3909 62.4831 65.8166 61.9191 65.8216 61.2855C65.8263 60.6663 66.3366 60.1567 66.965 60.1429Z" fill="white"/>
<path fill-rule="evenodd" clip-rule="evenodd" d="M29.863 34.8902C29.727 34.878 29.4858 34.9216 29.3181 34.8302C28.462 34.3633 27.9504 34.8305 27.4266 35.4284C26.9474 35.9752 26.4153 36.4777 25.8855 36.9774C25.3162 37.5146 24.6181 37.5346 24.1464 37.0603C23.6504 36.5615 23.668 35.9192 24.2319 35.3321C24.8988 34.6378 25.6138 33.9882 26.2552 33.272C26.4342 33.0721 26.5547 32.6699 26.4847 32.4216C26.0727 30.9608 26.3382 29.673 27.4167 28.6144C28.4722 27.5783 29.7419 27.3437 31.1711 27.7403C31.4318 27.8126 31.8678 27.657 32.075 27.4549C33.9563 25.6196 35.7974 23.7431 37.6715 21.9001C37.9363 21.6398 38.321 21.329 38.6392 21.3404C39.0164 21.354 39.4929 21.6061 39.7262 21.909C40.0731 22.3592 39.9421 22.9081 39.5323 23.3254C38.6208 24.254 37.6978 25.1711 36.7783 26.0916C35.7668 27.1044 34.7714 28.1343 33.7323 29.118C33.3763 29.4547 33.3357 29.733 33.4753 30.1902C34.2012 32.5685 32.4115 34.9223 29.863 34.8902ZM31.2844 31.2008C31.2706 30.4624 30.6529 29.8725 29.925 29.903C29.232 29.9319 28.652 30.5286 28.6452 31.2195C28.638 31.9496 29.2402 32.5441 29.9827 32.54C30.7399 32.5359 31.2987 31.9611 31.2844 31.2008Z" fill="white"/>
<path fill-rule="evenodd" clip-rule="evenodd" d="M31.1452 19.3662C31.1334 19.625 31.1468 19.8881 31.1047 20.1418C31.0076 20.7268 30.6462 21.063 30.0545 21.1021C29.4655 21.1411 28.9843 20.874 28.8944 20.295C28.7969 19.6674 28.7985 19.0019 28.8934 18.3735C28.981 17.7935 29.4744 17.5039 30.047 17.5487C30.6489 17.5957 31.0516 17.9503 31.1145 18.5885C31.1398 18.8452 31.1187 19.1066 31.1187 19.3657C31.1274 19.3658 31.1363 19.366 31.1452 19.3662Z" fill="white"/>
<path fill-rule="evenodd" clip-rule="evenodd" d="M18.0082 32.3723C17.7751 32.3723 17.5392 32.3953 17.3094 32.3679C16.6733 32.2915 16.3221 31.8829 16.2915 31.2803C16.2606 30.6696 16.5943 30.2134 17.2132 30.1154C17.7193 30.035 18.2486 30.0355 18.7611 30.0779C19.4589 30.1358 19.8647 30.6131 19.852 31.2571C19.8396 31.9 19.4167 32.3227 18.7078 32.3822C18.4762 32.4016 18.2415 32.3852 18.0082 32.3852C18.0082 32.3808 18.0082 32.3766 18.0082 32.3723Z" fill="white"/>
<path fill-rule="evenodd" clip-rule="evenodd" d="M41.8268 32.374C41.5939 32.374 41.3587 32.3959 41.1289 32.3697C40.498 32.2976 40.1406 31.922 40.1076 31.2984C40.0723 30.635 40.418 30.1907 41.0723 30.1C41.5799 30.0297 42.1092 30.0301 42.6191 30.0866C43.2689 30.1586 43.6364 30.5714 43.6492 31.239C43.6615 31.8814 43.2253 32.3173 42.5252 32.3803C42.2941 32.4012 42.0596 32.3837 41.8268 32.3837C41.8268 32.3805 41.8268 32.3771 41.8268 32.374Z" fill="white"/>
<path fill-rule="evenodd" clip-rule="evenodd" d="M31.1175 43.1806C31.1175 43.4136 31.1391 43.6487 31.1134 43.8789C31.0427 44.5119 30.6584 44.8677 30.0413 44.903C29.4233 44.9386 28.9625 44.6261 28.8628 44.0075C28.7773 43.4775 28.7751 42.9209 28.8287 42.3854C28.8965 41.7085 29.4216 41.3009 30.061 41.3623C30.7271 41.4261 31.0801 41.8182 31.1241 42.4816C31.1395 42.7135 31.1265 42.9474 31.1265 43.1806C31.1235 43.1806 31.1205 43.1806 31.1175 43.1806Z" fill="white"/>
</g>
<defs>
<clipPath id="clip0_105_1421">
<rect width="80" height="80" fill="white"/>
</clipPath>
</defs>
</svg>
