<svg width="60" height="40" viewBox="0 0 60 40" fill="none" xmlns="http://www.w3.org/2000/svg">
<path d="M60 0H0V40H60V0Z" fill="#DE2810"/>
<path d="M9.99998 4L13.5267 14.8541L4.29364 8.1459H15.7063L6.47327 14.8541L9.99998 4Z" fill="#FFDE00"/>
<path d="M20.7826 2.15961L20.4486 5.94914L18.4914 2.68705L21.9923 4.17569L18.285 5.02911L20.7826 2.15961Z" fill="#FFDE00"/>
<path d="M25.4355 6.60745L23.6572 9.97043L23.1192 6.20444L25.768 8.93496L22.0201 8.28287L25.4355 6.60745Z" fill="#FFDE00"/>
<path d="M25.8787 13.3141L22.8832 15.6591L23.9283 12.0012L25.2328 15.5748L22.0769 13.4505L25.8787 13.3141Z" fill="#FFDE00"/>
<path d="M20.7056 16.1286L20.5291 19.9287L18.4383 16.7506L21.9978 18.0928L18.3292 19.0992L20.7056 16.1286Z" fill="#FFDE00"/>
<rect x="0.5" y="0.5" width="59" height="39" stroke="#E8E8E8"/>
</svg>
