<svg width="60" height="60" viewBox="0 0 60 60" fill="none" xmlns="http://www.w3.org/2000/svg">
<g clip-path="url(#clip0_105_1552)">
<path fill-rule="evenodd" clip-rule="evenodd" d="M60 17.6384C59.7587 18.7605 59.5971 19.9072 59.2615 21.0002C58.1487 24.6234 55.9113 27.4985 53.1083 29.967C50.9703 31.8499 48.589 33.3658 46.0382 34.6295C45.3292 34.9807 44.7069 34.9951 43.9898 34.6377C39.5503 32.4265 35.6491 29.5662 32.8411 25.3971C30.9603 22.605 29.9774 19.5206 29.9918 16.131C30.006 12.8064 29.9943 9.48181 29.9952 6.15723C29.9955 5.16705 30.2314 4.83783 31.1633 4.52313C35.5414 3.04401 39.9158 1.5539 44.3041 0.10608C44.7304 -0.0347273 45.2831 -0.0356436 45.7094 0.105043C50.0977 1.55286 54.4766 3.03009 58.843 4.54236C59.2794 4.69348 59.6168 5.13031 60 5.43463C60 9.50257 60 13.5704 60 17.6384ZM32.4857 12.4056C32.4857 13.6371 32.4838 14.8685 32.4862 16.0999C32.4909 18.5339 33.0748 20.8192 34.291 22.9283C36.7434 27.1815 40.4882 29.984 44.7467 32.1968C44.8871 32.2698 45.1342 32.2594 45.2787 32.1849C48.9496 30.2939 52.2199 27.8992 54.6791 24.5231C56.2244 22.4018 57.3193 20.0577 57.4127 17.4075C57.5341 13.9714 57.4791 10.5294 57.5171 7.09003C57.5212 6.71076 57.2981 6.64765 57.0316 6.55768C53.1539 5.24903 49.2787 3.93256 45.3971 2.63544C45.1617 2.55689 44.8546 2.55597 44.6195 2.63453C40.7195 3.93848 36.8275 5.26587 32.9276 6.57019C32.5889 6.68354 32.4742 6.8324 32.4778 7.18659C32.495 8.92603 32.4856 10.6658 32.4857 12.4056Z" fill="url(#paint0_linear_105_1552)"/>
<path fill-rule="evenodd" clip-rule="evenodd" d="M44.2942 60C43.853 59.8539 43.397 59.7419 42.9733 59.5561C40.7501 58.579 39.5555 56.1271 40.1493 53.7997C40.7788 51.3324 42.9596 49.8087 45.5541 50.0237C47.9019 50.2181 49.7855 52.2156 49.9882 54.7253C50.1744 57.0311 48.5205 59.2683 46.1978 59.8547C46.0305 59.8971 45.8663 59.9514 45.7007 60C45.2318 60 44.7631 60 44.2942 60ZM42.5111 54.9901C42.5104 56.3772 43.6205 57.4995 44.9945 57.5011C46.37 57.5025 47.4829 56.3823 47.4836 54.9957C47.4843 53.6094 46.3766 52.4924 44.9996 52.4913C43.6206 52.4902 42.512 53.6034 42.5111 54.9901Z" fill="url(#paint1_linear_105_1552)"/>
<path fill-rule="evenodd" clip-rule="evenodd" d="M26.713 60C26.2595 59.8368 25.7893 59.7091 25.3552 59.5042C23.1557 58.4667 22.0313 55.9996 22.6769 53.6738C23.3404 51.283 25.5247 49.8041 28.0659 50.0249C30.277 50.2169 32.245 52.1757 32.4546 54.3927C32.6945 56.9303 31.2247 59.1293 28.8381 59.8067C28.6356 59.8638 28.4371 59.9352 28.2367 60C27.7289 60 27.221 60 26.713 60ZM27.5038 52.4915C26.1327 52.4873 24.9968 53.6127 24.9891 54.9827C24.9816 56.3412 26.1243 57.4951 27.485 57.5028C28.8447 57.5104 29.9893 56.3695 29.9935 55.0021C29.9979 53.6255 28.8775 52.4957 27.5038 52.4915Z" fill="url(#paint2_linear_105_1552)"/>
<path fill-rule="evenodd" clip-rule="evenodd" d="M15.759 22.4496C16.1089 23.6888 16.4382 24.8688 16.7753 26.0466C18.2899 31.3389 19.8075 36.6302 21.3223 41.9221C21.9121 43.9828 23.214 44.9791 25.3352 44.9795C32.6996 44.9805 40.0638 44.9803 47.4281 44.9795C49.4271 44.9792 50.6863 44.0984 51.3793 42.2089C52.0783 40.3031 52.7712 38.3951 53.4628 36.4866C53.6626 35.9352 53.975 35.5171 54.6101 35.4652C55.5896 35.3852 56.2029 36.2476 55.8521 37.2495C55.3944 38.5575 54.9054 39.8545 54.4287 41.1556C54.1467 41.9252 53.8954 42.7084 53.573 43.4607C52.4928 45.9819 50.5851 47.4318 47.8309 47.4508C40.213 47.5032 32.5945 47.4891 24.9764 47.4607C22.0604 47.4497 19.7921 45.635 18.9732 42.7783C16.585 34.4468 14.2034 26.1134 11.8192 17.7809C11.5829 16.9551 11.3506 16.1282 11.1107 15.3035C10.5834 13.4906 9.24481 12.4618 7.36292 12.4492C5.44867 12.4365 3.53424 12.4496 1.61994 12.4416C1.34967 12.4405 1.06317 12.43 0.812746 12.342C0.280641 12.1551 -0.00347803 11.7404 6.32229e-05 11.1761C0.00366447 10.6121 0.296267 10.2176 0.825624 10.0157C0.951479 9.96771 1.09192 9.93261 1.2254 9.93353C3.54883 9.94812 5.88367 9.83203 8.19245 10.0257C10.7543 10.2406 12.5134 11.7443 13.3502 14.1824C13.9324 15.8788 14.3821 17.622 14.8569 19.3536C14.9788 19.7981 15.1399 19.9762 15.6392 19.9703C18.2759 19.9398 20.9131 19.9526 23.5502 19.9584C24.3676 19.9601 24.8663 20.3356 24.9619 20.9871C25.0835 21.8165 24.5254 22.4423 23.6211 22.4459C21.238 22.4558 18.8549 22.4495 16.4717 22.4496C16.2589 22.4496 16.0461 22.4496 15.759 22.4496Z" fill="url(#paint3_linear_105_1552)"/>
<path fill-rule="evenodd" clip-rule="evenodd" d="M43.923 19.3978C44.0873 19.1756 44.1953 18.9838 44.3448 18.8336C46.6604 16.5068 48.9813 14.1851 51.3011 11.8625C51.4116 11.752 51.5184 11.6368 51.6367 11.5354C52.1892 11.0625 52.899 11.0731 53.3796 11.5567C53.8525 12.0324 53.8728 12.7766 53.3855 13.3009C52.8669 13.8587 52.3144 14.385 51.7759 14.9241C49.47 17.2331 47.1649 19.5429 44.857 21.8498C44.0148 22.6917 43.3345 22.6691 42.6016 21.7583C41.0218 19.7946 39.4496 17.8248 37.8806 15.8527C37.3436 15.1779 37.3816 14.4508 37.9553 13.9796C38.5454 13.4949 39.2812 13.612 39.843 14.3082C41.0084 15.7528 42.1614 17.2074 43.3199 18.6573C43.4885 18.8682 43.6608 19.0759 43.923 19.3978Z" fill="url(#paint4_linear_105_1552)"/>
</g>
<defs>
<linearGradient id="paint0_linear_105_1552" x1="30.3433" y1="17.4799" x2="60" y2="17.4799" gradientUnits="userSpaceOnUse">
<stop stop-color="#F97900"/>
<stop offset="1" stop-color="#FA9800"/>
</linearGradient>
<linearGradient id="paint1_linear_105_1552" x1="40.115" y1="55.0104" x2="50.0025" y2="55.0104" gradientUnits="userSpaceOnUse">
<stop stop-color="#F97900"/>
<stop offset="1" stop-color="#FA9800"/>
</linearGradient>
<linearGradient id="paint2_linear_105_1552" x1="22.6128" y1="55.0103" x2="32.4801" y2="55.0103" gradientUnits="userSpaceOnUse">
<stop stop-color="#F97900"/>
<stop offset="1" stop-color="#FA9800"/>
</linearGradient>
<linearGradient id="paint3_linear_105_1552" x1="0.655714" y1="28.7317" x2="55.9517" y2="28.7317" gradientUnits="userSpaceOnUse">
<stop stop-color="#F97900"/>
<stop offset="1" stop-color="#FA9800"/>
</linearGradient>
<linearGradient id="paint4_linear_105_1552" x1="37.6907" y1="16.8344" x2="53.7427" y2="16.8344" gradientUnits="userSpaceOnUse">
<stop stop-color="#F97900"/>
<stop offset="1" stop-color="#FA9800"/>
</linearGradient>
<clipPath id="clip0_105_1552">
<rect width="60" height="60" fill="white"/>
</clipPath>
</defs>
</svg>
