<svg width="80" height="80" viewBox="0 0 80 80" fill="none" xmlns="http://www.w3.org/2000/svg">
<g clip-path="url(#clip0_105_1405)">
<path fill-rule="evenodd" clip-rule="evenodd" d="M80 56.4132C79.624 57.1204 79.0195 57.3328 78.2471 57.3084C77.082 57.2718 75.9154 57.2988 74.689 57.2988C74.5638 59.9124 73.597 62.0555 71.564 63.6427C70.0501 64.8243 68.3132 65.3675 66.3967 65.3016C63.1092 65.1884 59.0716 62.7371 58.7282 57.3559C49.3711 57.3559 40.0099 57.3559 30.5821 57.3559C30.4589 60.0086 29.4288 62.198 27.2714 63.7845C25.7456 64.9067 24.0202 65.3976 22.1357 65.2939C19.0497 65.1241 15.0102 62.8544 14.6271 57.2988C14.3609 57.2988 14.0855 57.2988 13.81 57.2988C11.9347 57.2988 10.0593 57.3086 8.18418 57.2959C6.37509 57.2838 5.33522 56.2308 5.32122 54.42C5.31504 53.6201 5.32016 52.8201 5.32016 51.9332C4.14633 51.9332 3.05853 51.9352 1.97088 51.9321C1.6587 51.9311 1.3423 51.9451 1.03533 51.9003C0.411716 51.8094 0.0576315 51.403 0.00603647 50.7981C-0.0492202 50.1505 0.274673 49.6948 0.908055 49.5143C1.15325 49.4441 1.42205 49.4363 1.68027 49.436C5.4048 49.4314 9.12933 49.4326 12.8539 49.434C13.0357 49.434 13.2204 49.4327 13.3989 49.4617C14.0903 49.5747 14.5431 50.1053 14.5123 50.7503C14.4812 51.3994 13.9981 51.9038 13.2859 51.9179C11.7757 51.9475 10.2648 51.9309 8.75416 51.9331C8.47495 51.9336 8.19565 51.9332 7.87119 51.9332C7.87119 52.9038 7.87119 53.7784 7.87119 54.7189C8.06194 54.7447 8.25913 54.7941 8.45639 54.7946C10.488 54.8003 12.5198 54.785 14.551 54.8086C14.9941 54.8136 15.1642 54.6349 15.3425 54.254C16.7789 51.1862 19.2096 49.4752 22.5931 49.4684C26.0074 49.4615 28.468 51.1645 29.9028 54.2773C30.0846 54.6715 30.2904 54.8074 30.7169 54.8068C38.9734 54.7952 47.23 54.7985 55.4865 54.7963C55.6634 54.7962 55.8404 54.7679 56.103 54.7454C56.103 54.4358 56.103 54.1575 56.103 53.879C56.103 51.2485 56.1029 48.618 56.1032 45.9873C56.1032 45.7789 56.0923 45.5695 56.1097 45.3624C56.1709 44.629 56.6887 44.1051 57.3485 44.0957C58.0484 44.0857 58.5943 44.6219 58.5986 45.4091C58.6148 48.222 58.6065 51.035 58.6074 53.8479C58.6076 54.0304 58.5739 54.2218 58.6196 54.392C58.6584 54.5361 58.7793 54.7511 58.882 54.7618C59.0186 54.7762 59.1875 54.6404 59.3133 54.5346C59.3832 54.4762 59.3869 54.344 59.4313 54.2504C60.8848 51.1889 63.3084 49.4781 66.6909 49.4677C70.1083 49.4571 72.5632 51.1712 74.0038 54.275C74.1878 54.6717 74.3841 54.8217 74.8117 54.8069C75.6664 54.7775 76.5231 54.7983 77.4374 54.7983C77.4374 52.9568 77.4374 51.1748 77.4374 49.26C77.002 49.26 76.5454 49.271 76.0897 49.2584C73.7944 49.1953 72.1978 47.5755 72.1647 45.2732C72.153 44.4661 72.1517 43.6583 72.1652 42.851C72.1818 41.8782 72.6281 41.4329 73.6156 41.4204C74.7861 41.4054 75.9567 41.4168 77.2334 41.4168C77.0433 40.5895 76.6336 39.9368 75.9997 39.5616C75.2818 39.1371 74.4515 38.6538 73.6623 38.64C68.7673 38.5558 63.87 38.5959 58.9733 38.5973C58.8753 38.5973 58.7775 38.6283 58.6035 38.6578C58.6035 39.1134 58.6209 39.5503 58.5998 39.985C58.5633 40.7347 58.0676 41.2382 57.3853 41.2501C56.7095 41.2618 56.1859 40.7653 56.1135 40.0265C56.0907 39.7942 56.1039 39.5581 56.1039 39.3239C56.1034 32.2915 56.1035 25.2591 56.1035 18.2268C56.1035 17.9178 56.1035 17.609 56.1035 17.2474C40.0142 17.2474 23.9836 17.2474 7.82497 17.2474C7.82497 17.5429 7.82497 17.8434 7.82497 18.1439C7.82497 25.2023 7.82505 32.2608 7.82456 39.3191C7.82448 39.5795 7.83644 39.8419 7.81016 40.0999C7.73927 40.7978 7.32375 41.1959 6.64357 41.2389C5.99049 41.2801 5.5534 40.9186 5.38478 40.2928C5.31195 40.0227 5.32253 39.726 5.32236 39.4413C5.31935 32.2005 5.31878 24.9598 5.32098 17.7192C5.32163 15.6954 6.32415 14.6938 8.34491 14.6936C24.1026 14.6927 39.8604 14.6925 55.618 14.6938C57.612 14.6939 58.6006 15.6769 58.6073 17.6558C58.6099 18.407 58.6078 19.1582 58.6078 19.9882C58.9365 20.0036 59.2118 20.0273 59.4868 20.0276C62.1696 20.0304 64.8537 20.0838 67.5347 20.0156C70.9038 19.9298 73.846 22.2539 73.259 26.8283C73.2054 27.2452 72.7627 27.6119 72.3998 28.1521C72.9942 30.5328 73.6343 33.1298 74.3042 35.7194C74.3558 35.9191 74.5873 36.1706 74.7809 36.2207C77.5777 36.9418 79.2741 38.7045 79.8906 41.5195C79.9066 41.5921 79.9627 41.6556 80 41.7233C80 46.6199 80 51.5166 80 56.4132ZM71.7427 36.0491C71.6979 35.8043 71.6721 35.6017 71.6234 35.4047C71.0684 33.1601 70.4932 30.9202 69.9639 28.6695C69.8285 28.0941 69.6011 27.8798 68.9785 27.8868C65.8042 27.9218 62.6291 27.902 59.4544 27.9046C59.2009 27.9047 58.9476 27.9279 58.6776 27.9412C58.6776 30.6834 58.6776 33.3667 58.6776 36.0491C63.0607 36.0491 67.374 36.0491 71.7427 36.0491ZM66.7056 62.8076C69.6699 62.8155 72.1281 60.3818 72.1564 57.4113C72.1847 54.4249 69.6896 51.9296 66.6961 51.9503C63.7192 51.9711 61.279 54.4197 61.2839 57.3813C61.2887 60.3426 63.7438 62.7998 66.7056 62.8076ZM22.6597 62.8077C25.6262 62.7879 28.0595 60.3263 28.0482 57.3564C28.0367 54.3803 25.5978 51.9516 22.6194 51.95C19.6184 51.9485 17.1587 54.4332 17.1892 57.4357C17.2193 60.3966 19.6948 62.8276 22.6597 62.8077ZM70.7261 25.3285C70.8314 23.7555 69.6322 22.5579 67.9264 22.5463C65.0132 22.5265 62.0999 22.5396 59.1865 22.5437C59.013 22.5441 58.8395 22.5877 58.6486 22.6135C58.6486 23.5284 58.6486 24.4015 58.6486 25.3285C62.7025 25.3285 66.7158 25.3285 70.7261 25.3285ZM77.4531 46.6722C77.4531 45.7853 77.4531 44.8924 77.4531 43.9728C76.5158 43.9728 75.6227 43.9728 74.737 43.9728C74.4284 46.3753 75.0801 47.021 77.4531 46.6722Z" fill="url(#paint0_linear_105_1405)"/>
<path fill-rule="evenodd" clip-rule="evenodd" d="M30.5515 38.3452C33.7909 35.097 36.8608 32.0184 39.931 28.9402C40.5195 28.3501 41.0977 27.7491 41.7018 27.1754C42.3197 26.5884 43.0599 26.5816 43.5705 27.1235C44.0506 27.6331 44.0392 28.3658 43.4686 28.9387C39.517 32.9059 35.5584 36.8662 31.589 40.8156C30.9573 41.444 30.3078 41.4285 29.665 40.7918C27.4815 38.6292 25.3088 36.4555 23.1471 34.2712C22.5708 33.6888 22.566 32.9739 23.0654 32.4594C23.5914 31.9171 24.3116 31.9226 24.9321 32.5338C26.6201 34.1973 28.2921 35.8772 29.9617 37.559C30.1615 37.7604 30.307 38.0154 30.5515 38.3452Z" fill="url(#paint1_linear_105_1405)"/>
<path fill-rule="evenodd" clip-rule="evenodd" d="M42.6497 51.9332C39.7334 51.9332 36.817 51.9342 33.9005 51.9316C33.6148 51.9314 33.3226 51.9428 33.0447 51.8897C32.4222 51.7711 32.0123 51.3123 32.0996 50.7428C32.166 50.3092 32.5576 49.8743 32.9092 49.5559C33.0956 49.3875 33.5055 49.4374 33.8145 49.4371C39.7254 49.4312 45.6364 49.4327 51.5472 49.4335C51.7292 49.4335 51.9134 49.4285 52.0929 49.4529C52.8258 49.5525 53.3083 50.0987 53.2663 50.7675C53.2254 51.4146 52.7405 51.8971 52.0234 51.92C51.0609 51.9506 50.0968 51.9325 49.1334 51.9329C46.9722 51.9338 44.811 51.9332 42.6497 51.9332Z" fill="url(#paint2_linear_105_1405)"/>
<path fill-rule="evenodd" clip-rule="evenodd" d="M11.8775 46.5872C9.32725 46.5872 6.77688 46.5899 4.22659 46.5859C3.23359 46.5842 2.66515 46.1305 2.65961 45.3556C2.65432 44.5903 3.24905 44.0903 4.21243 44.0894C9.36502 44.0846 14.5177 44.0842 19.6703 44.0898C20.6175 44.0909 21.225 44.6195 21.2026 45.3796C21.1804 46.1257 20.6177 46.5834 19.6846 46.5852C17.0822 46.5907 14.4798 46.5872 11.8775 46.5872Z" fill="url(#paint3_linear_105_1405)"/>
<path fill-rule="evenodd" clip-rule="evenodd" d="M66.6847 54.8056C68.1281 54.7901 69.2852 55.9096 69.3075 57.3429C69.3294 58.7525 68.1699 59.947 66.7541 59.9731C65.3521 59.9989 64.1595 58.8326 64.1357 57.412C64.1118 55.9823 65.2477 54.8209 66.6847 54.8056Z" fill="url(#paint4_linear_105_1405)"/>
<path fill-rule="evenodd" clip-rule="evenodd" d="M22.6007 54.8052C24.0491 54.7953 25.1833 55.9145 25.1907 57.3603C25.1981 58.796 24.0579 59.9623 22.6361 59.9732C21.2381 59.984 20.0385 58.7995 20.0242 57.3946C20.01 55.9783 21.1675 54.8148 22.6007 54.8052Z" fill="url(#paint5_linear_105_1405)"/>
</g>
<defs>
<linearGradient id="paint0_linear_105_1405" x1="0.937469" y1="40.044" x2="80" y2="40.044" gradientUnits="userSpaceOnUse">
<stop stop-color="#F97900"/>
<stop offset="1" stop-color="#FA9800"/>
</linearGradient>
<linearGradient id="paint1_linear_105_1405" x1="22.9508" y1="34.0146" x2="43.9147" y2="34.0146" gradientUnits="userSpaceOnUse">
<stop stop-color="#F97900"/>
<stop offset="1" stop-color="#FA9800"/>
</linearGradient>
<linearGradient id="paint2_linear_105_1405" x1="32.3361" y1="50.6863" x2="53.2688" y2="50.6863" gradientUnits="userSpaceOnUse">
<stop stop-color="#F97900"/>
<stop offset="1" stop-color="#FA9800"/>
</linearGradient>
<linearGradient id="paint3_linear_105_1405" x1="2.87688" y1="45.3392" x2="21.2032" y2="45.3392" gradientUnits="userSpaceOnUse">
<stop stop-color="#F97900"/>
<stop offset="1" stop-color="#FA9800"/>
</linearGradient>
<linearGradient id="paint4_linear_105_1405" x1="64.196" y1="57.3939" x2="69.3078" y2="57.3939" gradientUnits="userSpaceOnUse">
<stop stop-color="#F97900"/>
<stop offset="1" stop-color="#FA9800"/>
</linearGradient>
<linearGradient id="paint5_linear_105_1405" x1="20.0847" y1="57.3937" x2="25.1908" y2="57.3937" gradientUnits="userSpaceOnUse">
<stop stop-color="#F97900"/>
<stop offset="1" stop-color="#FA9800"/>
</linearGradient>
<clipPath id="clip0_105_1405">
<rect width="80" height="80" fill="white"/>
</clipPath>
</defs>
</svg>
