<svg width="20" height="20" viewBox="0 0 20 20" fill="none" xmlns="http://www.w3.org/2000/svg">
<g clip-path="url(#clip0_106_203)">
<path fill-rule="evenodd" clip-rule="evenodd" d="M20 2.96522C19.8836 3.48988 19.7638 4.01382 19.6515 4.53936C18.7962 8.54131 17.9427 12.5436 17.0881 16.5456C17.0243 16.8441 16.9664 17.1444 16.889 17.4394C16.6007 18.5374 15.8001 18.4712 15.1788 18.0256C13.9002 17.1086 12.6372 16.1697 11.3676 15.24C11.1788 15.1017 10.9843 14.9704 10.8029 14.8229C10.6996 14.739 10.637 14.7494 10.5435 14.8396C9.80855 15.5486 9.06744 16.2514 8.3301 16.958C8.11052 17.1685 7.86121 17.2976 7.52728 17.2851C7.54663 16.9981 7.56439 16.7212 7.58409 16.4444C7.67051 15.2314 7.7548 14.0182 7.84943 12.8058C7.85693 12.7099 7.91539 12.595 7.9873 12.5302C10.7469 10.0441 13.5108 7.5629 16.2742 5.081C16.3081 5.05057 16.3535 5.02609 16.3732 4.98823C16.4176 4.90268 16.4491 4.81052 16.486 4.72104C16.3907 4.69607 16.287 4.63441 16.2021 4.65412C16.0477 4.69001 15.8934 4.75642 15.7583 4.84083C12.3178 6.98868 8.87948 9.13972 5.44358 11.2947C5.31502 11.3754 5.20874 11.3851 5.06753 11.3406C3.63045 10.8885 2.19029 10.4462 0.754049 9.99142C0.565614 9.93175 0.378358 9.83991 0.21869 9.72415C-0.0435582 9.53399 -0.0770661 9.25939 0.156881 9.04021C0.351421 8.85796 0.585674 8.69286 0.832093 8.59541C2.26308 8.02949 3.70258 7.48505 5.13973 6.9348C9.62714 5.21662 14.1146 3.49858 18.6032 1.7836C18.7469 1.72869 18.902 1.68629 19.0545 1.67508C19.5264 1.64047 19.8347 1.87202 19.9579 2.3295C19.9696 2.37289 19.9859 2.41497 20 2.45767C20 2.62684 20 2.79605 20 2.96522Z" fill="white"/>
</g>
<defs>
<clipPath id="clip0_106_203">
<rect width="20" height="20" fill="white"/>
</clipPath>
</defs>
</svg>
