<svg width="20" height="20" viewBox="0 0 20 20" fill="none" xmlns="http://www.w3.org/2000/svg">
<g clip-path="url(#clip0_106_198)">
<path fill-rule="evenodd" clip-rule="evenodd" d="M20 12.9042C19.9394 13.1684 19.8964 13.4381 19.815 13.6957C19.4938 14.7124 18.8512 15.4968 18.0139 16.1346C17.8899 16.2291 17.7589 16.3146 17.6317 16.405C17.6216 16.4121 17.6156 16.425 17.5957 16.4506C17.9673 17.1958 18.3428 17.9486 18.7398 18.7445C18.6392 18.7077 18.5808 18.6893 18.5248 18.6653C17.569 18.2562 16.6116 17.8508 15.6596 17.4331C15.4659 17.3482 15.2863 17.3273 15.0792 17.3669C13.2087 17.7245 11.4512 17.4111 9.83885 16.4023C8.80629 15.7563 8.03863 14.8712 7.68178 13.6788C7.34727 12.5608 7.47955 11.4862 8.05162 10.4779C8.80674 9.14692 9.98875 8.33902 11.4154 7.88329C13.1631 7.325 14.9062 7.38333 16.6097 8.07451C17.8039 8.55913 18.7831 9.31953 19.4394 10.4527C19.723 10.9424 19.8961 11.4703 19.9672 12.0318C19.9744 12.0887 19.9889 12.1447 20 12.2012C20 12.4355 20 12.6699 20 12.9042ZM12.8122 11.2598C12.8098 10.7504 12.3865 10.3285 11.8772 10.328C11.368 10.3275 10.9439 10.7486 10.9404 11.2581C10.937 11.7744 11.3689 12.2049 11.8852 12.1997C12.3946 12.1945 12.8145 11.7687 12.8122 11.2598ZM15.6354 10.328C15.1269 10.3223 14.6984 10.7398 14.6899 11.2492C14.6813 11.7577 15.0963 12.1881 15.6063 12.1995C16.1221 12.2111 16.5586 11.7858 16.5616 11.2687C16.5644 10.7599 16.1448 10.3337 15.6354 10.328Z" fill="white"/>
<path fill-rule="evenodd" clip-rule="evenodd" d="M14.877 6.29523C14.2468 6.29523 13.6669 6.25729 13.0934 6.30195C10.9032 6.47256 9.00517 7.28539 7.57068 8.99386C6.56995 10.1858 6.11788 11.5746 6.29432 13.1418C6.31377 13.3143 6.35157 13.4847 6.39173 13.7198C5.88286 13.5938 5.40621 13.5027 4.94902 13.3524C4.67469 13.2623 4.45223 13.2722 4.19206 13.3913C3.50127 13.7076 2.79737 13.9953 2.09843 14.2938C2.04643 14.3161 1.99256 14.3338 1.88725 14.373C2.22486 13.6957 2.54098 13.0614 2.84921 12.443C2.47518 12.1244 2.09095 11.8331 1.74891 11.4987C0.834518 10.6047 0.243209 9.53002 0.0568487 8.25572C-0.111405 7.10548 0.0961554 6.01006 0.648524 4.99319C1.55949 3.31619 3.00013 2.27751 4.78398 1.69955C6.72396 1.07107 8.66834 1.10735 10.5787 1.82374C12.2889 2.46516 13.6455 3.54058 14.4612 5.21383C14.6303 5.56062 14.7407 5.93598 14.877 6.29523ZM5.9382 5.01754C5.93986 4.50857 5.51945 4.08348 5.00997 4.07899C4.50143 4.07447 4.07386 4.49293 4.06653 5.00231C4.05909 5.51846 4.48784 5.95197 5.00448 5.95063C5.51388 5.94937 5.93653 5.52696 5.9382 5.01754ZM10.0051 5.95063C10.5146 5.94853 10.9366 5.52552 10.9374 5.01618C10.9382 4.50701 10.5173 4.08265 10.0078 4.07899C9.49142 4.07524 9.06071 4.50692 9.06572 5.0232C9.07068 5.53264 9.49614 5.95277 10.0051 5.95063Z" fill="white"/>
</g>
<defs>
<clipPath id="clip0_106_198">
<rect width="20" height="20" fill="white"/>
</clipPath>
</defs>
</svg>
