<svg style="display: none;" aria-hidden="true" xmlns="http://www.w3.org/2000/svg" xmlns:xlink="http://www.w3.org/1999/xlink"><symbol fill="none" viewBox="0 0 80 80" id="airplane" xmlns="http://www.w3.org/2000/svg"><g clip-path="url(#aclip0_105_1443)" fill-rule="evenodd" clip-rule="evenodd"><path d="M80 48.726c-.394.696-.826 1.373-1.175 2.09-1.259 2.594-3.499 3.72-6.194 3.991-1.806.181-3.641.078-5.464.104-.23.003-.46.022-.802.038.817 1.568 1.017 3.182.283 4.699a6.781 6.781 0 01-1.996 2.42c-1.82 1.342-4.389 1.161-6.116-.218-2.043-1.631-2.505-3.813-1.42-6.886-.237-.019-.457-.051-.676-.052-1.902-.004-3.804.013-5.705-.012-.493-.007-.802.14-1.095.553-2.274 3.203-5.335 5.089-9.302 5.236-3.409.127-6.29-1.182-8.672-3.603-.346-.352-.729-.7-.96-1.125-.47-.861-1.12-1.119-2.091-1.076-1.895.084-3.796.025-5.778.025 1.215 2.966.817 5.497-1.926 7.27-1.983 1.281-4.38 1-6.166-.51-1.857-1.57-2.28-3.857-1.188-6.716-.32-.015-.612-.033-.905-.044-2.078-.075-4.182.029-6.227-.269-2.368-.344-4.259-1.609-5.315-3.889-.251-.542-.561-1.057-.834-1.589-.654-1.274-.118-2.153 1.326-2.154 6.225-.005 12.45-.002 18.675-.002 1.225 0 2.45-.02 3.673.012.779.021 1.326.586 1.324 1.268-.002.694-.532 1.197-1.33 1.253-.207.014-.416.008-.625.008H3.494c.238 1.167 1.076 1.755 2.008 2.124.855.339 1.797.63 2.703.637 6.642.053 13.284.029 19.926.028.128 0 .256-.014.512-.03-1.308-3.96-1.073-7.799.82-11.623-.378-.019-.647-.043-.916-.043-3.334-.002-6.668 0-10.002-.003-.286 0-.575.002-.858-.032-.665-.082-1.037-.512-1.091-1.138-.055-.638.284-1.108.91-1.289.292-.084.617-.078.927-.078 4.037-.005 8.075.01 12.111-.025a1.939 1.939 0 001.206-.489c1.127-1.07 2.348-1.985 3.792-2.56.509-.204.626-.493.624-.999-.018-3.907.005-7.814-.015-11.721-.012-2.31.99-3.981 3.013-5.072.554-.299 1.076-.306 1.631-.008 2.022 1.086 3.038 2.751 3.027 5.064-.02 3.802.021 7.606-.026 11.408-.01.804.285 1.117.962 1.5 1.231.698 2.325 1.636 3.5 2.44.315.216.714.436 1.076.439 4.063.03 8.127.018 12.19.022.31 0 .635-.008.928.074.628.174.974.64.927 1.278-.046.626-.413 1.063-1.077 1.151-.283.038-.572.035-.858.035-3.308.002-6.615.002-9.924.002h-1.009c1.839 3.81 2.175 7.645.798 11.653.338.019.584.044.83.044 6.434.002 12.867-.006 19.3.008 1.37.003 2.65-.295 3.755-1.093.54-.39.95-.96 1.42-1.45l-.142-.217c-.272-.012-.543-.035-.814-.035-6.277-.002-12.554-.001-18.832-.002-.26 0-.521.009-.78-.01-.797-.055-1.318-.565-1.31-1.266.008-.695.542-1.204 1.334-1.26.181-.014.364-.005.547-.005 7.163 0 14.325.009 21.488-.013.78-.003 1.423.148 1.895.794v.938zm-30.391-1.141c-.03-2.639-.683-4.876-2.09-6.878-3.483-4.956-10.007-5.46-14.172-1.093-4.21 4.415-3.908 12.111.635 16.185 3.655 3.276 8.939 3.119 12.396-.376 2.202-2.227 3.177-4.954 3.23-7.838zm-8.442-13.498c.035-.093.068-.14.068-.187.003-4.054.03-8.108-.028-12.161-.008-.535-.405-1.093-.708-1.588-.31-.504-.787-.453-1.042.027-.317.597-.691 1.264-.702 1.907-.066 3.819-.033 7.64-.03 11.46 0 .176.03.351.047.542h2.395zM20.936 57.68a2.71 2.71 0 00-2.76-2.757 2.74 2.74 0 00-2.728 2.725c-.008 1.519 1.266 2.794 2.773 2.777a2.758 2.758 0 002.715-2.745zm38.102-.053c-.014 1.541 1.218 2.8 2.74 2.799 1.48-.001 2.73-1.24 2.748-2.726a2.74 2.74 0 00-2.754-2.776 2.707 2.707 0 00-2.734 2.703z" fill="url(#apaint0_linear_105_1443)"/><path d="M39.965 45.116c-1.587 0-3.175.005-4.762-.003-.584-.003-1.145-.186-1.306-.782-.102-.378-.068-.925.148-1.219.22-.299.735-.528 1.124-.533 3.2-.042 6.4-.037 9.601-.017.912.006 1.467.546 1.453 1.291-.014.742-.584 1.247-1.496 1.258-1.587.018-3.175.005-4.762.005z" fill="url(#apaint1_linear_105_1443)"/></g><defs><linearGradient id="apaint0_linear_105_1443" x1=".938" y1="40.04" x2="80" y2="40.04" gradientUnits="userSpaceOnUse"><stop stop-color="#F97900"/><stop offset="1" stop-color="#FA9800"/></linearGradient><linearGradient id="apaint1_linear_105_1443" x1="33.987" y1="43.836" x2="46.224" y2="43.836" gradientUnits="userSpaceOnUse"><stop stop-color="#F97900"/><stop offset="1" stop-color="#FA9800"/></linearGradient><clipPath id="aclip0_105_1443"><path fill="#fff" d="M0 0h80v80H0z"/></clipPath></defs></symbol><symbol fill="none" viewBox="0 0 60 60" id="box" xmlns="http://www.w3.org/2000/svg"><g clip-path="url(#bclip0_105_1567)" fill-rule="evenodd" clip-rule="evenodd"><path d="M.02 31.003c0-4.905.024-9.81-.02-14.715-.009-1.036.336-1.616 1.278-2.083C10.509 9.63 19.722 5.015 28.928.387c.764-.384 1.394-.388 2.16-.003a6795.42 6795.42 0 0027.72 13.855c.864.43 1.194.987 1.192 1.948a5490.57 5490.57 0 000 29.686c.003 1.028-.377 1.582-1.317 1.982A6456.778 6456.778 0 0031.15 59.64c-.784.337-1.455.356-2.253.012A5990.019 5990.019 0 001.247 47.81c-.902-.384-1.247-.933-1.24-1.9.03-4.968.014-9.937.014-14.906zm28.668 25.653v-.809c0-8.742-.007-17.485.017-26.227.001-.617-.207-.885-.748-1.115-7.969-3.396-15.929-6.813-23.891-10.223-.44-.188-.886-.363-1.373-.562-.014.233-.03.378-.03.524-.002 8.913.002 17.827-.013 26.74-.001.459.2.613.571.771 6.03 2.573 12.053 5.16 18.078 7.742 2.423 1.038 4.847 2.072 7.39 3.16zm20.44-35.414c-.29.117-.484.191-.676.273-5.5 2.353-10.997 4.714-16.506 7.046-.474.2-.622.428-.622.933.015 8.808.008 17.615.008 26.423 0 .222.02.443.031.71.185-.067.285-.099.38-.14 8.356-3.581 16.709-7.169 25.072-10.732.483-.206.534-.491.533-.93-.009-8.787-.006-17.574-.008-26.36 0-.222-.019-.444-.032-.74-1.696.723-3.29 1.427-4.907 2.08-.476.191-.61.444-.608.944.02 4.33.014 8.659.01 12.988-.001 1.517-.902 2.06-2.271 1.38-.82-.409-1.643-.81-2.45-1.242-.314-.169-.512-.147-.769.119-.963.996-1.964 1.956-2.933 2.947-.466.476-.99.672-1.615.414-.611-.252-.803-.764-.8-1.396.009-2.602-.002-5.204.006-7.806.004-.943.487-1.489 1.286-1.505.83-.017 1.345.538 1.354 1.503.013 1.365.002 2.73.006 4.095 0 .174.027.35.056.696.53-.55.937-.982 1.355-1.404.972-.977 1.237-1.018 2.459-.42.525.258 1.054.51 1.642.794v-10.67zm-9.077.972c-.321-.174-.517-.288-.72-.389-2.78-1.39-5.557-2.783-8.343-4.16-.593-.295-1.06-.66-1.046-1.383.014-.724.487-1.078 1.1-1.336 1.943-.817 3.889-1.628 5.81-2.493.748-.337 1.39-.316 2.12.056 3.492 1.776 7.001 3.517 10.512 5.256.201.1.505.166.695.087 1.748-.719 3.481-1.474 5.285-2.246-.202-.123-.337-.22-.484-.294-8.15-4.074-16.302-8.142-24.446-12.227-.392-.197-.681-.176-1.057.013-8.11 4.063-16.224 8.114-24.337 12.168-.182.09-.36.192-.574.307.103.063.137.09.175.107 8.313 3.565 16.625 7.13 24.942 10.686.175.074.432.097.6.026 3.213-1.361 6.419-2.74 9.768-4.178zm6.557-2.815c-.107-.092-.145-.14-.194-.165-2.758-1.383-5.515-2.768-8.28-4.136a.812.812 0 00-.596-.022c-1.003.407-1.992.847-3.032 1.296.12.087.196.16.286.205 2.693 1.37 5.387 2.739 8.086 4.097.157.08.39.145.534.086 1.057-.428 2.1-.89 3.196-1.36z" fill="url(#bpaint0_linear_105_1567)"/><path d="M11.424 41.556c-.109-.035-.363-.084-.587-.194a276.738 276.738 0 01-3.822-1.908c-.798-.407-1.07-1.152-.706-1.855.382-.736 1.077-.939 1.896-.532 1.313.653 2.627 1.306 3.928 1.983.632.328.877.913.716 1.547-.14.558-.68.962-1.425.96z" fill="url(#bpaint1_linear_105_1567)"/><path d="M13.02 44.246c-.138 1.062-1.075 1.707-1.976 1.292a87.332 87.332 0 01-4.222-2.103c-.664-.35-.843-1.13-.5-1.769.35-.65.99-.91 1.677-.582 1.42.676 2.835 1.367 4.209 2.13.353.196.545.68.811 1.032z" fill="url(#bpaint2_linear_105_1567)"/></g><defs><linearGradient id="bpaint0_linear_105_1567" x1=".703" y1="30.052" x2="60" y2="30.052" gradientUnits="userSpaceOnUse"><stop stop-color="#F97900"/><stop offset="1" stop-color="#FA9800"/></linearGradient><linearGradient id="bpaint1_linear_105_1567" x1="6.229" y1="39.212" x2="12.897" y2="39.212" gradientUnits="userSpaceOnUse"><stop stop-color="#F97900"/><stop offset="1" stop-color="#FA9800"/></linearGradient><linearGradient id="bpaint2_linear_105_1567" x1="6.232" y1="43.308" x2="13.019" y2="43.308" gradientUnits="userSpaceOnUse"><stop stop-color="#F97900"/><stop offset="1" stop-color="#FA9800"/></linearGradient><clipPath id="bclip0_105_1567"><path fill="#fff" d="M0 0h60v60H0z"/></clipPath></defs></symbol><symbol fill="none" viewBox="0 0 80 80" id="fast-delivery" xmlns="http://www.w3.org/2000/svg"><g clip-path="url(#cclip0_105_1421)" fill-rule="evenodd" clip-rule="evenodd" fill="#fff"><path d="M80 50.157c-.774 2.831-1.553 5.66-2.32 8.493-.639 2.351-2.011 3.525-4.439 3.852-.252.034-.538.333-.68.582-1.326 2.33-3.237 3.85-5.911 4.293-3.284.544-5.66-1.295-6.02-4.611-.007-.072-.036-.143-.073-.284h-.761c-8.334 0-16.668.006-25.002-.013-.57-.002-.856.159-1.127.675-1.514 2.885-4.844 4.72-7.638 4.271-2.496-.402-3.955-1.967-4.198-4.5-.01-.102-.027-.203-.053-.386-.246-.016-.494-.044-.743-.045-1.328-.004-2.656.017-3.984-.008-1.651-.031-2.594-1.168-2.194-2.748.732-2.898 1.53-5.78 2.32-8.663.21-.762.801-1.09 1.48-.901.642.178.949.784.744 1.563-.653 2.49-1.324 4.975-1.987 7.462-.073.274-.137.55-.234.943 1.676 0 3.299.019 4.92-.028.175-.005.37-.37.504-.6 1.547-2.66 3.76-4.303 6.916-4.36 2.806-.052 4.723 1.738 4.995 4.527.012.128.029.254.048.423h17.759l8.083-30.16c-.365-.021-.636-.05-.906-.05-2.213-.004-4.427.002-6.64-.004-.988-.002-1.456-.36-1.483-1.106-.028-.773.488-1.227 1.462-1.232 2.448-.01 4.896-.007 7.344-.003 1.816.003 2.495.618 2.683 2.512h.82c2.604 0 5.208-.004 7.812.002 2.356.005 3.483 1.141 3.491 3.51.011 3.385.03 6.77.017 10.156-.002.504.152.813.567 1.088.867.576 1.681 1.23 2.554 1.797.883.572 1.565 1.278 1.874 2.303v1.25zm-3.1 2.36c-.413-.035-.775-.034-1.125-.101-.65-.125-1.013-.537-.973-1.209.04-.67.433-1.041 1.106-1.079.415-.023.844.047 1.244-.036.193-.04.494-.376.462-.511a1.5 1.5 0 00-.508-.798 50.658 50.658 0 00-3.049-2.177 2.552 2.552 0 00-1.282-.405c-2.474-.038-4.948-.008-7.422-.022-2.477-.015-3.783-1.697-3.185-4.088.253-1.009.533-2.01.798-3.016.738-2.796 2.318-4.007 5.235-4.007h4.444v-1.389c-.005-1.174-.111-1.282-1.3-1.283-2.812-.002-5.625.016-8.437-.014-.58-.007-.793.182-.94.739-1.436 5.455-2.906 10.901-4.364 16.35-.05.188-.068.384-.114.647h.936c4.063 0 8.125-.002 12.187.002.96 0 1.448.386 1.466 1.125.018.76-.51 1.193-1.485 1.216-.182.004-.364 0-.546 0-4.167 0-8.334.011-12.5-.011-.556-.003-.82.137-.962.71-.527 2.119-1.115 4.223-1.673 6.334-.05.188-.054.388-.087.644 1.919 0 3.766-.02 5.611.013.519.01.76-.164 1.006-.623 1.204-2.256 3.048-3.746 5.573-4.262 3.938-.806 6.302 1.809 6.319 4.467 0 .114.076.227.12.35.92-.17 1.555-.68 1.797-1.499.59-1.99 1.095-4.006 1.648-6.067zm-4.26-15.104c-1.7 0-3.308-.012-4.914.004-1.236.012-2.052.646-2.385 1.838a153.302 153.302 0 00-.903 3.381c-.228.896.006 1.195.948 1.199 2.208.01 4.415.004 6.623 0 .202 0 .404-.033.63-.053v-6.37zM24.164 62.528c-.026 1.606 1.065 2.646 2.737 2.61 2.411-.054 4.92-2.293 5.253-4.688.208-1.491-.632-2.71-2.025-2.94-2.73-.45-5.92 2.234-5.965 5.018zm44.192-5.053c-2.348-.011-4.737 1.952-5.28 4.337-.455 2.004.83 3.49 2.864 3.316 2.198-.189 4.412-2.065 4.948-4.194.501-1.989-.568-3.45-2.532-3.46z"/><path d="M48.69 31.237c-.007 10.31-8.488 18.768-18.761 18.71-10.311-.057-18.672-8.443-18.67-18.723.004-10.31 8.448-18.73 18.762-18.707 10.28.024 18.675 8.441 18.668 18.72zm-2.345.03c.044-8.94-7.288-16.349-16.236-16.405-9.043-.058-16.466 7.27-16.505 16.291-.039 9.028 7.318 16.43 16.352 16.45 8.985.022 16.345-7.315 16.39-16.335zM7.473 46.358c2.053 0 4.106-.013 6.158.008.761.008 1.21.468 1.215 1.137.005.667-.434 1.11-1.19 1.185-.205.02-.415.01-.622.01H1.808c-.207 0-.417.01-.623-.011C.445 48.61-.014 48.142 0 47.49c.014-.647.492-1.119 1.237-1.126 2.079-.018 4.158-.006 6.236-.006zM8.708 51.369c1.172 0 2.343-.01 3.514.003.878.009 1.368.43 1.372 1.145.005.715-.486 1.181-1.35 1.188-2.369.017-4.738.016-7.106 0-.858-.005-1.374-.47-1.383-1.166-.009-.715.53-1.162 1.439-1.168 1.171-.009 2.343-.002 3.514-.002zM9.926 56.388c.442 0 .885-.023 1.325.004.631.04 1.013.404 1.08 1.023.067.623-.232 1.155-.842 1.211a17.306 17.306 0 01-3.099.004c-.61-.054-.927-.585-.862-1.2.064-.605.435-.998 1.074-1.037.44-.027.883-.005 1.324-.005zM28.201 60.143c.629.018 1.14.532 1.142 1.148.002.636-.575 1.197-1.209 1.176a1.168 1.168 0 01-1.12-1.244 1.13 1.13 0 011.187-1.08zM66.965 60.143c.642-.014 1.15.452 1.181 1.085a1.163 1.163 0 01-1.121 1.239c-.634.016-1.208-.548-1.203-1.181a1.165 1.165 0 011.143-1.143z"/><path d="M29.863 34.89c-.136-.012-.377.032-.545-.06-.856-.467-1.368 0-1.891.598-.48.547-1.012 1.05-1.541 1.55-.57.537-1.268.557-1.74.082-.496-.498-.478-1.14.086-1.728.667-.694 1.382-1.344 2.023-2.06.18-.2.3-.602.23-.85-.412-1.461-.147-2.749.932-3.808 1.055-1.036 2.325-1.27 3.754-.874.26.073.697-.083.904-.285 1.881-1.835 3.722-3.712 5.596-5.555.265-.26.65-.571.968-.56.377.014.854.266 1.087.569.347.45.216 1-.194 1.416-.911.929-1.834 1.846-2.754 2.767-1.011 1.012-2.007 2.042-3.046 3.026-.356.337-.396.615-.257 1.072.726 2.378-1.064 4.732-3.612 4.7zm1.421-3.69a1.319 1.319 0 00-1.359-1.297 1.357 1.357 0 00-1.28 1.317 1.319 1.319 0 001.338 1.32c.757-.004 1.316-.579 1.301-1.34zM31.145 19.366c-.012.259.002.522-.04.776-.097.585-.459.921-1.05.96-.59.04-1.07-.228-1.16-.807a6.433 6.433 0 01-.002-1.922c.088-.58.581-.87 1.154-.824.602.047 1.005.401 1.067 1.04.026.256.005.518.005.777h.026zM18.008 32.372c-.233 0-.469.023-.699-.004-.636-.077-.987-.485-1.018-1.088-.03-.61.303-1.067.922-1.165a6.524 6.524 0 011.548-.037c.698.058 1.104.535 1.091 1.18-.012.642-.435 1.065-1.144 1.124-.232.02-.466.003-.7.003v-.013zM41.827 32.374c-.233 0-.468.022-.698-.004-.631-.072-.988-.448-1.021-1.072-.036-.663.31-1.107.964-1.198a6.313 6.313 0 011.547-.013c.65.072 1.017.484 1.03 1.152.012.642-.424 1.078-1.124 1.141-.23.021-.465.004-.698.004v-.01zM31.117 43.18c0 .234.022.469-.004.699-.07.633-.455.989-1.072 1.024-.618.036-1.079-.277-1.178-.895a6.33 6.33 0 01-.034-1.623c.067-.676.593-1.084 1.232-1.023.666.064 1.02.456 1.063 1.12.016.232.003.465.003.699h-.01z"/></g><defs><clipPath id="cclip0_105_1421"><path fill="#fff" d="M0 0h80v80H0z"/></clipPath></defs></symbol><symbol fill="none" viewBox="0 0 60 40" id="flag-china" xmlns="http://www.w3.org/2000/svg"><path d="M60 0H0v40h60V0z" fill="#DE2810"/><path d="M10 4l3.527 10.854-9.233-6.708h11.412l-9.233 6.708L10 4zM20.783 2.16l-.334 3.79-1.958-3.263 3.501 1.489-3.707.853 2.498-2.87zM25.436 6.607L23.657 9.97l-.538-3.766 2.649 2.731-3.748-.652 3.416-1.676zM25.879 13.314l-2.996 2.345 1.045-3.658 1.305 3.574-3.156-2.124 3.802-.137zM20.706 16.129l-.177 3.8-2.09-3.178 3.559 1.342-3.669 1.006 2.377-2.97z" fill="#FFDE00"/><path stroke="#E8E8E8" d="M.5.5h59v39H.5z"/></symbol><symbol fill="none" viewBox="0 0 60 40" id="flag-ru" xmlns="http://www.w3.org/2000/svg"><path d="M.1.1h59.8V20H.1V.1z" fill="#fff"/><path d="M.1 20h59.8v19.9H.1V20z" fill="#D52B1E"/><path d="M.1 13.366h59.8v13.267H.1V13.366z" fill="#0039A6"/><path stroke="#E8E8E8" d="M.5.5h59v39H.5z"/></symbol><symbol fill="none" viewBox="0 0 60 60" id="insurance" xmlns="http://www.w3.org/2000/svg"><g clip-path="url(#fclip0_105_1552)" fill-rule="evenodd" clip-rule="evenodd"><path d="M60 17.638c-.241 1.122-.403 2.27-.739 3.362-1.112 3.623-3.35 6.498-6.153 8.967-2.138 1.883-4.519 3.399-7.07 4.663-.709.35-1.331.365-2.048.008-4.44-2.212-8.34-5.072-11.149-9.24-1.88-2.793-2.864-5.877-2.85-9.267.015-3.325.003-6.65.004-9.974 0-.99.236-1.32 1.168-1.634 4.378-1.479 8.753-2.97 13.141-4.417.426-.14.98-.142 1.405-.001a941.082 941.082 0 0113.134 4.437c.436.151.774.588 1.157.893v12.203zm-27.514-5.232c0 1.231-.002 2.462 0 3.694.005 2.434.589 4.72 1.805 6.828 2.452 4.253 6.197 7.056 10.456 9.269.14.073.387.062.532-.012 3.67-1.891 6.94-4.286 9.4-7.662 1.545-2.121 2.64-4.465 2.734-7.116.121-3.436.066-6.878.104-10.317.004-.38-.219-.442-.485-.532-3.878-1.309-7.753-2.625-11.635-3.923a1.312 1.312 0 00-.777 0c-3.9 1.303-7.792 2.63-11.692 3.935-.34.114-.454.262-.45.617.017 1.739.008 3.479.008 5.219z" fill="url(#fpaint0_linear_105_1552)"/><path d="M44.294 60c-.441-.146-.897-.258-1.32-.444-2.224-.977-3.418-3.429-2.825-5.756.63-2.468 2.81-3.991 5.405-3.776 2.348.194 4.231 2.192 4.434 4.701.186 2.306-1.468 4.543-3.79 5.13-.167.042-.332.096-.497.145h-1.407zm-1.783-5.01c0 1.387 1.11 2.51 2.483 2.511a2.494 2.494 0 002.49-2.505 2.486 2.486 0 10-4.973-.006z" fill="url(#fpaint1_linear_105_1552)"/><path d="M26.713 60c-.454-.163-.924-.29-1.358-.496a4.98 4.98 0 01-2.678-5.83c.663-2.391 2.848-3.87 5.389-3.65 2.211.193 4.179 2.152 4.389 4.369.24 2.537-1.23 4.736-3.617 5.414-.202.057-.4.128-.601.193h-1.524zm.79-7.508a2.52 2.52 0 00-2.514 2.49c-.007 1.36 1.135 2.513 2.496 2.52 1.36.008 2.504-1.133 2.509-2.5a2.507 2.507 0 00-2.49-2.51z" fill="url(#fpaint2_linear_105_1552)"/><path d="M15.759 22.45c.35 1.239.68 2.419 1.016 3.597 1.515 5.292 3.033 10.583 4.547 15.875.59 2.06 1.892 3.057 4.013 3.058h22.093c2 0 3.258-.882 3.951-2.771.7-1.906 1.392-3.814 2.084-5.722.2-.552.512-.97 1.147-1.022.98-.08 1.593.783 1.242 1.784-.458 1.308-.947 2.605-1.423 3.907-.282.77-.534 1.552-.856 2.305-1.08 2.52-2.988 3.97-5.742 3.99-7.618.052-15.237.038-22.855.01-2.916-.011-5.184-1.826-6.003-4.683-2.388-8.331-4.77-16.665-7.154-24.997-.236-.826-.468-1.653-.708-2.477-.528-1.813-1.866-2.842-3.748-2.855-1.914-.012-3.829 0-5.743-.007-.27-.002-.557-.012-.807-.1-.532-.187-.816-.602-.813-1.166.004-.564.296-.958.826-1.16.125-.048.266-.083.4-.082 2.323.014 4.658-.102 6.966.092 2.562.215 4.321 1.718 5.158 4.156.582 1.697 1.032 3.44 1.507 5.172.122.444.283.622.782.616 2.637-.03 5.274-.017 7.911-.012.818.002 1.316.378 1.412 1.03.122.829-.437 1.454-1.34 1.458-2.384.01-4.767.003-7.15.004h-.713z" fill="url(#fpaint3_linear_105_1552)"/><path d="M43.923 19.398c.164-.222.272-.414.422-.564 2.315-2.327 4.636-4.649 6.956-6.971.11-.111.217-.226.336-.328.552-.473 1.262-.462 1.743.022.472.475.493 1.22.005 1.744-.518.558-1.07 1.084-1.61 1.623-2.305 2.31-4.61 4.619-6.918 6.926-.842.842-1.523.82-2.255-.092-1.58-1.963-3.152-3.933-4.721-5.905-.537-.675-.5-1.402.074-1.873.59-.485 1.326-.368 1.888.328 1.165 1.445 2.318 2.9 3.477 4.35.169.21.34.418.603.74z" fill="url(#fpaint4_linear_105_1552)"/></g><defs><linearGradient id="fpaint0_linear_105_1552" x1="30.343" y1="17.48" x2="60" y2="17.48" gradientUnits="userSpaceOnUse"><stop stop-color="#F97900"/><stop offset="1" stop-color="#FA9800"/></linearGradient><linearGradient id="fpaint1_linear_105_1552" x1="40.115" y1="55.01" x2="50.002" y2="55.01" gradientUnits="userSpaceOnUse"><stop stop-color="#F97900"/><stop offset="1" stop-color="#FA9800"/></linearGradient><linearGradient id="fpaint2_linear_105_1552" x1="22.613" y1="55.01" x2="32.48" y2="55.01" gradientUnits="userSpaceOnUse"><stop stop-color="#F97900"/><stop offset="1" stop-color="#FA9800"/></linearGradient><linearGradient id="fpaint3_linear_105_1552" x1=".656" y1="28.732" x2="55.952" y2="28.732" gradientUnits="userSpaceOnUse"><stop stop-color="#F97900"/><stop offset="1" stop-color="#FA9800"/></linearGradient><linearGradient id="fpaint4_linear_105_1552" x1="37.691" y1="16.834" x2="53.743" y2="16.834" gradientUnits="userSpaceOnUse"><stop stop-color="#F97900"/><stop offset="1" stop-color="#FA9800"/></linearGradient><clipPath id="fclip0_105_1552"><path fill="#fff" d="M0 0h60v60H0z"/></clipPath></defs></symbol><symbol fill="none" viewBox="0 0 60 60" id="search" xmlns="http://www.w3.org/2000/svg"><path fill-rule="evenodd" clip-rule="evenodd" d="M54.892 57c-.412-.287-.875-.522-1.229-.868-4.431-4.34-8.846-8.695-13.266-13.046-.111-.11-.228-.214-.363-.34-.152.104-.3.195-.435.298-2.93 2.235-6.214 3.692-9.835 4.309-5.413.922-10.564.115-15.347-2.642-4.96-2.858-8.495-6.958-10.241-12.43-2.293-7.185-1.24-13.935 3.229-20.031 3.716-5.07 8.781-8.066 14.991-8.984 5.354-.791 10.42.176 15.077 2.996 5.327 3.225 8.9 7.827 10.325 13.904 1.72 7.329.011 13.908-4.816 19.678-.102.121-.205.24-.306.362-.023.027-.037.06-.09.147.103.108.215.233.334.35 4.381 4.315 8.767 8.626 13.138 12.951.365.361.63.822.942 1.237v.738c-.23.685-.7 1.128-1.37 1.371h-.738zM6.522 25.25c.04.783.039 1.437.115 2.08.487 4.079 2.038 7.695 4.87 10.687 4.955 5.235 11.078 7.203 18.094 5.838 6.15-1.197 10.748-4.738 13.473-10.432 2.746-5.74 2.58-11.542-.496-17.089-3.152-5.685-8.124-8.926-14.573-9.72-5.092-.626-9.776.613-13.88 3.725-4.964 3.763-7.434 8.833-7.604 14.912z" fill="url(#gpaint0_linear_105_1562)"/><defs><linearGradient id="gpaint0_linear_105_1562" x1="3.633" y1="30.047" x2="57" y2="30.047" gradientUnits="userSpaceOnUse"><stop stop-color="#F97900"/><stop offset="1" stop-color="#FA9800"/></linearGradient></defs></symbol><symbol fill="none" viewBox="0 0 80 80" id="shipped" xmlns="http://www.w3.org/2000/svg"><g clip-path="url(#hclip0_105_1405)" fill-rule="evenodd" clip-rule="evenodd"><path d="M80 56.413c-.376.707-.98.92-1.753.895-1.165-.036-2.332-.01-3.558-.01-.125 2.614-1.092 4.758-3.125 6.345-1.514 1.181-3.25 1.725-5.167 1.659-3.288-.114-7.325-2.565-7.669-7.946H30.582c-.123 2.653-1.153 4.842-3.31 6.428-1.526 1.123-3.252 1.614-5.136 1.51-3.086-.17-7.126-2.44-7.509-7.995h-.817c-1.875 0-3.75.01-5.626-.003-1.809-.012-2.849-1.065-2.863-2.876-.006-.8 0-1.6 0-2.487-1.175 0-2.262.002-3.35 0-.312-.002-.629.012-.936-.033-.623-.09-.977-.497-1.029-1.102-.055-.648.269-1.103.902-1.284.245-.07.514-.078.772-.078 3.725-.005 7.45-.003 11.174-.002.182 0 .366-.001.545.028.691.113 1.144.643 1.113 1.288-.03.65-.514 1.154-1.226 1.168-1.51.03-3.021.013-4.532.015h-.883v2.786c.19.026.388.075.585.076 2.032.005 4.064-.01 6.095.014.443.005.613-.174.791-.555 1.437-3.068 3.868-4.779 7.251-4.786 3.414-.007 5.875 1.696 7.31 4.81.182.394.387.53.814.529 8.256-.012 16.513-.009 24.77-.01.176 0 .353-.03.616-.052v-.866-7.892c0-.208-.01-.418.007-.625.06-.733.579-1.257 1.239-1.266.7-.01 1.245.526 1.25 1.313.016 2.813.008 5.626.008 8.439 0 .182-.033.374.013.544.038.144.16.36.262.37.137.014.306-.122.431-.227.07-.059.074-.191.118-.285 1.454-3.061 3.877-4.772 7.26-4.782 3.417-.01 5.872 1.703 7.313 4.807.184.397.38.547.808.532.854-.03 1.711-.009 2.625-.009V49.26c-.435 0-.892.011-1.347-.002-2.296-.063-3.892-1.683-3.925-3.985a77.611 77.611 0 010-2.422c.017-.973.463-1.418 1.45-1.43 1.171-.016 2.342-.004 3.618-.004-.19-.828-.6-1.48-1.233-1.855-.718-.425-1.549-.908-2.338-.922-4.895-.084-9.792-.044-14.689-.043-.098 0-.195.031-.37.06 0 .456.018.893-.003 1.328-.037.75-.532 1.253-1.215 1.265-.675.012-1.2-.485-1.271-1.224-.023-.232-.01-.468-.01-.702V18.227v-.98H7.824V39.32c0 .26.011.523-.015.78-.07.699-.486 1.097-1.166 1.14-.654.041-1.09-.32-1.26-.946-.072-.27-.061-.567-.062-.852-.003-7.24-.003-14.481-.001-21.722 0-2.024 1.003-3.025 3.024-3.025 15.758-.001 31.515-.002 47.273 0 1.994 0 2.983.983 2.99 2.962.002.751 0 1.502 0 2.332.329.016.604.04.879.04 2.683.002 5.367.056 8.048-.012 3.369-.086 6.311 2.238 5.724 6.812-.054.417-.496.784-.86 1.324.595 2.38 1.235 4.978 1.905 7.567.052.2.283.452.477.502 2.797.72 4.493 2.484 5.11 5.299.016.072.072.136.109.203v14.69zM71.743 36.05c-.045-.245-.07-.447-.12-.644-.555-2.245-1.13-4.485-1.66-6.736-.134-.575-.362-.79-.984-.782-3.175.035-6.35.015-9.525.018-.253 0-.506.023-.776.036v8.108h13.065zm-5.037 26.759c2.964.008 5.422-2.426 5.45-5.397.029-2.986-2.466-5.481-5.46-5.46-2.977.02-5.417 2.469-5.412 5.43.005 2.962 2.46 5.419 5.422 5.427zm-44.046 0c2.966-.02 5.4-2.482 5.388-5.452-.011-2.976-2.45-5.404-5.429-5.406-3-.002-5.46 2.483-5.43 5.486.03 2.96 2.506 5.392 5.47 5.372zm48.066-37.48c.105-1.572-1.094-2.77-2.8-2.782-2.913-.02-5.826-.006-8.74-.002-.173 0-.346.044-.537.07v2.714h12.077zm6.727 21.344v-2.7h-2.716c-.309 2.403.343 3.049 2.716 2.7z" fill="url(#hpaint0_linear_105_1405)"/><path d="M30.552 38.345l9.379-9.405c.589-.59 1.167-1.19 1.77-1.765.619-.587 1.359-.593 1.87-.052.48.51.468 1.243-.102 1.816-3.952 3.967-7.91 7.927-11.88 11.877-.632.628-1.281.612-1.924-.024a921.154 921.154 0 01-6.518-6.52c-.576-.583-.581-1.298-.082-1.813.526-.542 1.247-.536 1.867.075a649.305 649.305 0 015.03 5.025c.2.201.345.456.59.786z" fill="url(#hpaint1_linear_105_1405)"/><path d="M42.65 51.933c-2.917 0-5.833.001-8.75-.001-.285 0-.577.01-.855-.042-.623-.119-1.033-.578-.945-1.147.066-.434.458-.869.81-1.187.186-.168.596-.119.905-.119 5.91-.006 11.821-.004 17.732-.003.182 0 .366-.005.546.019.733.1 1.215.646 1.173 1.314-.04.648-.526 1.13-1.243 1.153-.962.03-1.926.012-2.89.013H42.65z" fill="url(#hpaint2_linear_105_1405)"/><path d="M11.877 46.587c-2.55 0-5.1.003-7.65-.001-.993-.002-1.562-.456-1.567-1.23-.006-.766.589-1.266 1.552-1.267a7658.52 7658.52 0 0115.458 0c.947.002 1.555.53 1.533 1.29-.023.747-.585 1.204-1.518 1.206-2.603.006-5.205.002-7.807.002z" fill="url(#hpaint3_linear_105_1405)"/><path d="M66.685 54.806a2.568 2.568 0 012.623 2.537c.021 1.41-1.138 2.604-2.554 2.63-1.402.026-2.595-1.14-2.618-2.561a2.56 2.56 0 012.549-2.606z" fill="url(#hpaint4_linear_105_1405)"/><path d="M22.6 54.805a2.538 2.538 0 012.59 2.555 2.584 2.584 0 01-2.554 2.613c-1.398.011-2.598-1.173-2.612-2.578-.014-1.417 1.143-2.58 2.577-2.59z" fill="url(#hpaint5_linear_105_1405)"/></g><defs><linearGradient id="hpaint0_linear_105_1405" x1=".937" y1="40.044" x2="80" y2="40.044" gradientUnits="userSpaceOnUse"><stop stop-color="#F97900"/><stop offset="1" stop-color="#FA9800"/></linearGradient><linearGradient id="hpaint1_linear_105_1405" x1="22.951" y1="34.015" x2="43.915" y2="34.015" gradientUnits="userSpaceOnUse"><stop stop-color="#F97900"/><stop offset="1" stop-color="#FA9800"/></linearGradient><linearGradient id="hpaint2_linear_105_1405" x1="32.336" y1="50.686" x2="53.269" y2="50.686" gradientUnits="userSpaceOnUse"><stop stop-color="#F97900"/><stop offset="1" stop-color="#FA9800"/></linearGradient><linearGradient id="hpaint3_linear_105_1405" x1="2.877" y1="45.339" x2="21.203" y2="45.339" gradientUnits="userSpaceOnUse"><stop stop-color="#F97900"/><stop offset="1" stop-color="#FA9800"/></linearGradient><linearGradient id="hpaint4_linear_105_1405" x1="64.196" y1="57.394" x2="69.308" y2="57.394" gradientUnits="userSpaceOnUse"><stop stop-color="#F97900"/><stop offset="1" stop-color="#FA9800"/></linearGradient><linearGradient id="hpaint5_linear_105_1405" x1="20.085" y1="57.394" x2="25.191" y2="57.394" gradientUnits="userSpaceOnUse"><stop stop-color="#F97900"/><stop offset="1" stop-color="#FA9800"/></linearGradient><clipPath id="hclip0_105_1405"><path fill="#fff" d="M0 0h80v80H0z"/></clipPath></defs></symbol><symbol fill="none" viewBox="0 0 20 20" id="telegram" xmlns="http://www.w3.org/2000/svg"><g clip-path="url(#iclip0_106_203)"><path fill-rule="evenodd" clip-rule="evenodd" d="M20 2.965c-.116.525-.236 1.049-.349 1.574l-2.563 12.007c-.064.298-.122.598-.199.893-.288 1.098-1.089 1.032-1.71.587-1.279-.917-2.542-1.856-3.811-2.786-.19-.138-.384-.27-.565-.417-.103-.084-.166-.074-.26.017-.734.709-1.476 1.411-2.213 2.118-.22.21-.469.34-.803.327.02-.287.037-.564.057-.84.087-1.214.17-2.427.265-3.64a.456.456 0 01.138-.275c2.76-2.486 5.524-4.967 8.287-7.449.034-.03.08-.055.1-.093.044-.085.075-.177.112-.267-.095-.025-.199-.087-.284-.067a1.49 1.49 0 00-.444.187C12.318 6.989 8.88 9.14 5.444 11.295a.404.404 0 01-.376.046C3.63 10.889 2.19 10.446.754 9.99a1.905 1.905 0 01-.535-.267c-.263-.19-.296-.465-.062-.684.194-.182.429-.347.675-.445 1.431-.566 2.87-1.11 4.308-1.66 4.487-1.718 8.975-3.436 13.463-5.151a1.62 1.62 0 01.451-.109c.472-.035.78.197.904.654.012.044.028.086.042.129v.507z" fill="#fff"/></g><defs><clipPath id="iclip0_106_203"><path fill="#fff" d="M0 0h20v20H0z"/></clipPath></defs></symbol><symbol fill="none" viewBox="0 0 60 60" id="truck" xmlns="http://www.w3.org/2000/svg"><path fill-rule="evenodd" clip-rule="evenodd" d="M7.148 52.267H4.544c-1.05 0-2.1.013-3.149-.005-.92-.016-1.353-.46-1.391-1.379-.007-.175-.002-.35-.002-.525V18.15c0-1.608.294-1.896 1.929-1.899 1.202-.001 2.404-.007 3.607-.014.04 0 .08-.024.217-.067v-.664c0-2.733.015-5.466-.009-8.2-.007-.83.311-1.323 1.09-1.653C10.653 4.035 14.457 2.382 18.26.726 18.78.5 19.25.495 19.769.72a2189.24 2189.24 0 0011.548 4.972c.67.286.968.732.964 1.463-.017 3.039.016 6.079-.014 9.118-.04 4.167-1.732 7.56-4.917 10.222-2.398 2.005-4.8 4.006-7.203 6.006-.91.757-1.333.757-2.231.008-2.502-2.086-5.01-4.165-7.5-6.265-2.211-1.864-3.628-4.228-4.283-7.04-.09-.387-.216-.55-.637-.537-1 .031-2 .01-3.038.01V40.2h33.495V18.704H32.36c0-.758-.023-1.429.02-2.096.007-.126.267-.337.413-.339 1.443-.024 2.887-.037 4.33-.002.86.021 1.27.51 1.271 1.414.005 3.258.002 6.516.002 9.774v.814h.725c4.045 0 8.09.01 12.136-.009.652-.003 1.108.213 1.499.74 2.254 3.036 4.542 6.047 6.783 9.092.264.358.434.874.437 1.319.035 3.76.023 7.521.018 11.282-.002 1.162-.42 1.568-1.596 1.573-1.045.005-2.09 0-3.182 0-.118 2.269-.956 4.149-2.697 5.573-1.32 1.08-2.848 1.593-4.544 1.607-3.134.026-6.937-2.316-7.24-7.144h-19.11c-.118 2.255-.97 4.15-2.743 5.576-1.328 1.068-2.861 1.57-4.558 1.567-3.263-.009-6.907-2.49-7.176-7.178zm11.878-21.949c2.57-2.162 5.139-4.203 7.565-6.404 2.188-1.984 3.242-4.574 3.276-7.536.032-2.732.001-5.465.018-8.197.003-.363-.11-.535-.445-.677-3.332-1.422-6.653-2.869-9.988-4.284a1.205 1.205 0 00-.85.002c-3.335 1.415-6.655 2.864-9.988 4.284-.34.146-.448.327-.446.682.015 2.798-.022 5.597.028 8.394.05 2.866 1.11 5.373 3.22 7.292 2.44 2.217 5.027 4.27 7.61 6.444zm19.406 19.523c.752 0 1.47-.028 2.184.01.464.026.663-.148.865-.567 1.265-2.628 3.364-4.123 6.294-4.197 3.156-.079 5.404 1.437 6.781 4.27.092.187.285.45.443.459.84.045 1.685.021 2.52.021v-9.594h-.773c-3.214 0-6.428.002-9.643 0-1.107-.002-1.499-.394-1.5-1.498-.004-2.45-.001-4.899-.002-7.348v-.71h-7.169v19.154zm-2.46-7.126H2.47v7.127c1.535 0 3.02-.018 4.504.01.473.009.705-.12.926-.577 1.304-2.702 3.476-4.185 6.49-4.191 3.017-.007 5.19 1.471 6.508 4.168.214.438.42.603.91.601 4.482-.02 8.963-.011 13.444-.013.232 0 .464-.021.756-.035l-.001-6.474c0-.192-.021-.384-.035-.616zm-21.61 14.322c2.691.01 4.856-2.138 4.847-4.81-.008-2.593-2.167-4.76-4.763-4.78-2.64-.02-4.809 2.119-4.83 4.763a4.761 4.761 0 004.746 4.827zm33.62 0a4.796 4.796 0 004.816-4.774c.02-2.61-2.17-4.812-4.792-4.815a4.803 4.803 0 00-4.8 4.792 4.76 4.76 0 004.775 4.797zm.05-26.385v7.151h8.315c-1.755-2.342-3.45-4.613-5.163-6.87a.79.79 0 00-.537-.269c-.849-.028-1.7-.012-2.614-.012z" fill="url(#jpaint0_linear_105_1545)"/><path fill-rule="evenodd" clip-rule="evenodd" d="M17.5 16.125l4.695-4.704c.17-.17.333-.348.514-.506.55-.482 1.234-.477 1.703.003.451.462.455 1.12.006 1.655-.085.1-.18.19-.273.283-1.839 1.84-3.676 3.68-5.518 5.517-.844.842-1.38.84-2.224-.001-.866-.864-1.735-1.726-2.593-2.6-.61-.62-.658-1.34-.146-1.848.514-.511 1.219-.458 1.843.163.65.647 1.283 1.31 1.993 2.038z" fill="url(#jpaint1_linear_105_1545)"/><defs><linearGradient id="jpaint0_linear_105_1545" x1=".703" y1="30.051" x2="60" y2="30.051" gradientUnits="userSpaceOnUse"><stop stop-color="#F97900"/><stop offset="1" stop-color="#FA9800"/></linearGradient><linearGradient id="jpaint1_linear_105_1545" x1="13.447" y1="14.787" x2="24.753" y2="14.787" gradientUnits="userSpaceOnUse"><stop stop-color="#F97900"/><stop offset="1" stop-color="#FA9800"/></linearGradient></defs></symbol><symbol fill="none" viewBox="0 0 20 20" id="wechat" xmlns="http://www.w3.org/2000/svg"><g clip-path="url(#kclip0_106_198)" fill-rule="evenodd" clip-rule="evenodd" fill="#fff"><path d="M20 12.904c-.06.264-.104.534-.185.792-.321 1.016-.964 1.8-1.801 2.439-.124.094-.255.18-.382.27-.01.007-.016.02-.036.046l1.144 2.293c-.1-.036-.16-.055-.215-.079-.956-.409-1.913-.814-2.865-1.232a.932.932 0 00-.58-.066c-1.871.357-3.629.044-5.241-.965-1.033-.646-1.8-1.53-2.157-2.723-.335-1.118-.202-2.193.37-3.201.755-1.331 1.937-2.139 3.363-2.595 1.748-.558 3.491-.5 5.195.192 1.194.484 2.173 1.245 2.83 2.378.283.49.456 1.017.527 1.579.007.057.022.113.033.17v.702zm-7.188-1.644a.943.943 0 00-.935-.932c-.509 0-.933.42-.937.93a.944.944 0 00.945.942.944.944 0 00.927-.94zm2.823-.932a.944.944 0 00-.945.921.943.943 0 00.916.95.943.943 0 00.956-.93.944.944 0 00-.927-.941z"/><path d="M14.877 6.295c-.63 0-1.21-.038-1.784.007-2.19.17-4.088.983-5.522 2.692-1.001 1.192-1.453 2.58-1.277 4.148.02.172.058.343.098.578-.51-.126-.986-.217-1.443-.368a.953.953 0 00-.757.04c-.69.316-1.395.603-2.094.902-.052.022-.105.04-.21.079l.961-1.93c-.374-.319-.758-.61-1.1-.944C.835 10.605.243 9.53.057 8.256a5.138 5.138 0 01.592-3.263C1.559 3.316 3 2.278 4.784 1.7c1.94-.629 3.884-.593 5.795.124 1.71.641 3.066 1.717 3.882 3.39.17.347.28.722.416 1.081zM5.938 5.018a.943.943 0 00-.928-.939.944.944 0 00-.943.923.943.943 0 00.937.949.943.943 0 00.934-.933zm4.067.933a.943.943 0 00.932-.935c.001-.509-.42-.933-.93-.937a.943.943 0 00-.941.944c.005.51.43.93.94.928z"/></g><defs><clipPath id="kclip0_106_198"><path fill="#fff" d="M0 0h20v20H0z"/></clipPath></defs></symbol><symbol fill="none" viewBox="0 0 20 20" id="whatsapp" xmlns="http://www.w3.org/2000/svg"><g clip-path="url(#lclip0_106_207)"><path fill-rule="evenodd" clip-rule="evenodd" d="M10.585 20H9.491c-.283-.032-.568-.057-.851-.096a9.773 9.773 0 01-3.976-1.46.362.362 0 00-.343-.044c-.666.22-1.335.432-2.003.646l-1.655.527c.026-.084.041-.138.06-.191.363-1.084.72-2.17 1.095-3.25a.507.507 0 00-.073-.514 9.676 9.676 0 01-1.702-4.734c-.188-2.137.24-4.154 1.366-5.982C3.28 1.868 6.02.222 9.58.016c1.972-.114 3.828.361 5.516 1.39 2.597 1.583 4.189 3.877 4.75 6.873.07.375.104.757.155 1.135v1.172l-.048.422c-.239 2.144-1.055 4.038-2.498 5.645-1.542 1.717-3.454 2.789-5.732 3.192-.376.066-.758.104-1.137.155zm2.648-4.365c.321-.062.598-.083.853-.17 1.416-.483 1.898-1.167 1.94-2.47.006-.205-.066-.346-.255-.436-.745-.354-1.485-.72-2.233-1.068-.383-.178-.607-.105-.86.235-.194.261-.384.526-.584.781-.305.39-.52.44-.983.252-1.646-.673-2.87-1.826-3.789-3.327-.184-.301-.174-.428.06-.698.187-.217.38-.428.567-.645.23-.268.327-.557.137-.893-.05-.09-.08-.192-.121-.288-.284-.67-.563-1.341-.86-2.005-.047-.108-.16-.236-.264-.26-.532-.124-1.07-.132-1.528.22-.42.322-.714.753-.9 1.25-.366.983-.249 1.94.156 2.883.298.694.733 1.302 1.178 1.903a13.836 13.836 0 002.606 2.704c1.069.834 2.287 1.358 3.572 1.742.438.131.896.2 1.308.29z" fill="#fff"/></g><defs><clipPath id="lclip0_106_207"><path fill="#fff" d="M0 0h20v20H0z"/></clipPath></defs></symbol></svg>