<svg width="60" height="60" viewBox="0 0 60 60" fill="none" xmlns="http://www.w3.org/2000/svg">
<path fill-rule="evenodd" clip-rule="evenodd" d="M54.8921 57C54.48 56.7134 54.0172 56.4784 53.6634 56.1317C49.232 51.7923 44.8168 47.4366 40.3969 43.0855C40.2859 42.9762 40.169 42.8724 40.0337 42.7464C39.8816 42.8502 39.7348 42.9407 39.5985 43.0445C36.6692 45.2786 33.3847 46.7355 29.7635 47.3527C24.3514 48.2753 19.2004 47.4683 14.4166 44.7113C9.45765 41.8535 5.92192 37.7526 4.17602 32.2817C1.88285 25.0957 2.93528 18.3464 7.40463 12.2497C11.121 7.17997 16.1864 4.184 22.3965 3.26609C27.7505 2.47469 32.8158 3.44154 37.4728 6.26162C42.7997 9.48737 46.3727 14.0892 47.7982 20.166C49.5173 27.4949 47.8091 34.074 42.9817 39.8442C42.8803 39.9654 42.7766 40.0847 42.6757 40.2062C42.6535 40.2329 42.6389 40.2659 42.5867 40.353C42.6892 40.461 42.8008 40.5858 42.9199 40.7031C47.3012 45.0181 51.6869 49.3288 56.0578 53.6543C56.4226 54.0154 56.6883 54.4765 57 54.8911C57 55.1372 57 55.3833 57 55.6292C56.7705 56.3136 56.3003 56.7568 55.6299 57C55.384 57 55.1381 57 54.8921 57ZM6.5215 25.2508C6.56281 26.0331 6.56055 26.6866 6.6374 27.3306C7.12382 31.4086 8.6746 35.0245 11.5067 38.0166C16.4622 43.252 22.5846 45.2202 29.6009 43.8549C35.7516 42.6579 40.3486 39.1171 43.0735 33.4225C45.8201 27.6827 45.6531 21.8809 42.5783 16.3343C39.4265 10.649 34.4537 7.40838 28.0051 6.61461C22.9128 5.98784 18.2294 7.2271 14.1253 10.3387C9.16118 14.1021 6.69146 19.1717 6.5215 25.2508Z" fill="url(#paint0_linear_105_1562)"/>
<defs>
<linearGradient id="paint0_linear_105_1562" x1="3.63283" y1="30.0468" x2="57" y2="30.0468" gradientUnits="userSpaceOnUse">
<stop stop-color="#F97900"/>
<stop offset="1" stop-color="#FA9800"/>
</linearGradient>
</defs>
</svg>
