<svg width="58" height="58" viewBox="0 0 58 58" fill="none" xmlns="http://www.w3.org/2000/svg">
<g filter="url(#filter0_d_105_1273)">
<circle cx="29" cy="29" r="25" fill="white"/>
</g>
<g clip-path="url(#clip0_105_1273)">
<path fill-rule="evenodd" clip-rule="evenodd" d="M30.562 54C29.5203 54 28.4786 54 27.4369 54C27.3132 53.9715 27.1907 53.9258 27.0656 53.917C24.8294 53.7592 22.6591 53.2854 20.5539 52.5269C8.18963 48.0721 1.39428 34.8864 4.93543 22.2353C9.32941 6.53762 27.3664 -0.819711 41.5271 7.39979C48.2018 11.274 52.213 17.1378 53.6239 24.7436C53.7894 25.6356 53.8766 26.542 54 27.4418C54 28.4507 54 29.4597 54 30.4686C53.9722 30.6252 53.939 30.7811 53.9171 30.9386C53.7817 31.9199 53.6948 32.9105 53.5076 33.8815C51.5653 43.9412 43.4173 51.8959 33.3038 53.6166C32.3944 53.7713 31.4761 53.8735 30.562 54ZM25.2708 35.4736C25.2269 35.2936 25.1996 35.1678 25.1652 35.0438C24.6882 33.3238 24.7471 31.6212 25.4611 29.9853C26.9385 26.6007 29.6716 24.8502 33.2051 24.2346C34.1403 24.0715 35.1056 24.0823 36.0907 24.011C36.0516 23.8499 36.0124 23.662 35.9606 23.4778C35.4666 21.7248 34.514 20.2528 33.1791 19.0301C28.5656 14.8045 21.0065 14.8063 16.3634 19.0251C12.4542 22.577 12.1491 27.7627 15.6524 31.6572C16.2673 32.3408 17.0061 32.9128 17.7257 33.5712C17.3893 34.592 17.0319 35.6764 16.6413 36.8618C17.8389 36.2201 18.9321 35.6476 20.0105 35.0486C20.331 34.8705 20.6108 34.8309 20.9727 34.9376C22.3511 35.3441 23.7625 35.5327 25.2708 35.4736ZM41.95 42.1696C41.6515 41.2529 41.409 40.4814 41.146 39.7167C41.0653 39.4822 41.097 39.3403 41.3018 39.1809C41.6989 38.8723 42.0881 38.5471 42.4427 38.1909C45.6648 34.9548 45.5457 30.3316 42.1704 27.2675C38.3859 23.8322 32.1721 23.7736 28.2926 27.1456C26.742 28.4935 25.663 30.1343 25.4896 32.2225C25.243 35.1947 26.5877 37.4578 28.917 39.1397C31.7457 41.1823 34.9201 41.4426 38.2302 40.643C38.6397 40.5442 38.9822 40.5657 39.3415 40.7632C40.1654 41.2162 40.9961 41.6565 41.95 42.1696Z" fill="#39BC1B"/>
<path fill-rule="evenodd" clip-rule="evenodd" d="M19.0389 22.2469C19.0366 21.3338 19.7579 20.6014 20.6711 20.59C21.6159 20.5781 22.3582 21.3016 22.3604 22.2362C22.3626 23.1586 21.5956 23.923 20.6819 23.9093C19.7826 23.8957 19.0413 23.1456 19.0389 22.2469Z" fill="#39BC1B"/>
<path fill-rule="evenodd" clip-rule="evenodd" d="M30.2782 22.2908C30.2583 23.1903 29.4935 23.9274 28.5987 23.9095C27.6805 23.8911 26.9287 23.1042 26.9581 22.1927C26.9883 21.2633 27.7502 20.5611 28.6965 20.5907C29.6065 20.6194 30.2984 21.3631 30.2782 22.2908Z" fill="#39BC1B"/>
<path fill-rule="evenodd" clip-rule="evenodd" d="M31.9694 28.9698C32.6827 28.9757 33.2314 29.5314 33.2291 30.2459C33.227 30.9537 32.6662 31.5243 31.9662 31.5307C31.2643 31.5369 30.6548 30.9196 30.6701 30.218C30.6855 29.5206 31.2647 28.9639 31.9694 28.9698Z" fill="#39BC1B"/>
<path fill-rule="evenodd" clip-rule="evenodd" d="M39.5481 30.2434C39.5476 30.9425 38.9798 31.5209 38.2842 31.5307C37.5681 31.5407 36.9873 30.9515 36.9958 30.2236C37.0042 29.5158 37.5673 28.9667 38.2797 28.9717C38.9872 28.9767 39.5485 29.5394 39.5481 30.2434Z" fill="#39BC1B"/>
</g>
<defs>
<filter id="filter0_d_105_1273" x="0" y="0" width="58" height="58" filterUnits="userSpaceOnUse" color-interpolation-filters="sRGB">
<feFlood flood-opacity="0" result="BackgroundImageFix"/>
<feColorMatrix in="SourceAlpha" type="matrix" values="0 0 0 0 0 0 0 0 0 0 0 0 0 0 0 0 0 0 127 0" result="hardAlpha"/>
<feOffset/>
<feGaussianBlur stdDeviation="2"/>
<feComposite in2="hardAlpha" operator="out"/>
<feColorMatrix type="matrix" values="0 0 0 0 0 0 0 0 0 0 0 0 0 0 0 0 0 0 0.2 0"/>
<feBlend mode="normal" in2="BackgroundImageFix" result="effect1_dropShadow_105_1273"/>
<feBlend mode="normal" in="SourceGraphic" in2="effect1_dropShadow_105_1273" result="shape"/>
</filter>
<clipPath id="clip0_105_1273">
<rect width="50" height="50" fill="white" transform="translate(4 4)"/>
</clipPath>
</defs>
</svg>
