<svg width="58" height="58" viewBox="0 0 58 58" fill="none" xmlns="http://www.w3.org/2000/svg">
<g filter="url(#filter0_d_105_1286)">
<circle cx="29" cy="29" r="25" fill="white"/>
</g>
<g clip-path="url(#clip0_105_1286)">
<path fill-rule="evenodd" clip-rule="evenodd" d="M30.5517 54.0001C29.5096 54.0001 28.4675 54.0001 27.4253 54.0001C27.1052 53.9602 26.7856 53.9163 26.4652 53.881C21.2202 53.3021 16.5436 51.3671 12.5995 47.8508C6.21597 42.1595 3.37153 34.9927 4.11575 26.484C4.58165 21.1571 6.67393 16.4542 10.2453 12.468C15.1232 7.02364 21.2542 4.18673 28.5685 4.0079C33.3184 3.89173 37.7738 5.05689 41.8207 7.54692C48.2639 11.5114 52.2269 17.2286 53.6161 24.6873C53.7851 25.5954 53.8739 26.5185 54 27.4346C54 28.4765 54 29.5182 54 30.56C53.9599 30.8805 53.9152 31.2005 53.8805 31.5215C53.345 36.467 51.5523 40.9032 48.3949 44.7498C44.4685 49.5329 39.4453 52.5032 33.3446 53.6129C32.4207 53.7809 31.483 53.8729 30.5517 54.0001ZM14.4327 43.7886C14.6512 43.7397 14.8056 43.7101 14.9574 43.6706C17.269 43.0695 19.5825 42.475 21.8893 41.8562C22.2323 41.7642 22.5016 41.8021 22.8134 41.9577C25.5521 43.3247 28.4503 43.8376 31.4822 43.4216C39.9838 42.255 45.6935 34.421 44.2464 25.9458C42.8523 17.7813 34.759 12.246 26.6382 13.9029C16.6943 15.9319 11.5899 26.7661 16.3482 35.7231C16.4558 35.9257 16.4837 36.2239 16.4303 36.4494C16.228 37.3023 15.9755 38.1431 15.744 38.9891C15.3122 40.5661 14.8821 42.1435 14.4327 43.7886Z" fill="#4DAA29"/>
<path fill-rule="evenodd" clip-rule="evenodd" d="M18.0178 40.2566C18.3992 38.8686 18.741 37.5675 19.1203 36.2773C19.2451 35.853 19.1921 35.5277 18.9567 35.1445C14.977 28.6709 17.5551 20.3363 24.4874 17.2186C31.8944 13.8871 40.5727 18.6164 41.803 26.6545C42.8496 33.4916 38.2076 39.8513 31.38 40.8856C28.4271 41.3329 25.6562 40.7452 23.0714 39.2465C22.8758 39.1331 22.5771 39.0903 22.3574 39.1433C20.9387 39.4861 19.5286 39.8645 18.0178 40.2566ZM33.6467 35.7738C33.8402 35.7463 34.2295 35.7521 34.5747 35.6319C36.5149 34.9563 37.0659 34.0763 37.0906 32.5396C37.0937 32.3417 36.9477 32.0429 36.7838 31.9574C35.805 31.4476 34.8021 30.9835 33.8042 30.5108C33.4321 30.3345 33.1369 30.3984 32.8804 30.7617C32.5624 31.2122 32.1856 31.6208 31.845 32.0559C31.6077 32.3592 31.3402 32.4026 30.9866 32.2613C28.8076 31.3901 27.1484 29.9234 25.9342 27.9276C25.7312 27.5939 25.7616 27.3415 26.0059 27.0514C26.3089 26.6917 26.6129 26.3222 26.8421 25.9151C26.9599 25.7058 27.0099 25.3707 26.9289 25.1524C26.5672 24.1792 26.157 23.2233 25.7403 22.2715C25.6545 22.0753 25.499 21.8677 25.3188 21.7627C24.8551 21.4921 23.6991 21.6848 23.2958 22.0723C22.1234 23.1993 21.702 24.57 22.0192 26.1592C22.2909 27.5204 23.0509 28.6359 23.8673 29.7177C25.4551 31.8213 27.3014 33.6325 29.7446 34.7209C30.9281 35.248 32.1249 35.7809 33.6467 35.7738Z" fill="#4DAA29"/>
</g>
<defs>
<filter id="filter0_d_105_1286" x="0" y="0" width="58" height="58" filterUnits="userSpaceOnUse" color-interpolation-filters="sRGB">
<feFlood flood-opacity="0" result="BackgroundImageFix"/>
<feColorMatrix in="SourceAlpha" type="matrix" values="0 0 0 0 0 0 0 0 0 0 0 0 0 0 0 0 0 0 127 0" result="hardAlpha"/>
<feOffset/>
<feGaussianBlur stdDeviation="2"/>
<feComposite in2="hardAlpha" operator="out"/>
<feColorMatrix type="matrix" values="0 0 0 0 0 0 0 0 0 0 0 0 0 0 0 0 0 0 0.2 0"/>
<feBlend mode="normal" in2="BackgroundImageFix" result="effect1_dropShadow_105_1286"/>
<feBlend mode="normal" in="SourceGraphic" in2="effect1_dropShadow_105_1286" result="shape"/>
</filter>
<clipPath id="clip0_105_1286">
<rect width="50" height="50" fill="white" transform="translate(4 4)"/>
</clipPath>
</defs>
</svg>
