<svg width="100" height="100" viewBox="0 0 100 100" fill="none" xmlns="http://www.w3.org/2000/svg">
<path d="M100 0H0V100H100V0Z" fill="#F97900"/>
<path d="M47.7413 39.6623H74.288C74.4998 39.6623 74.7097 39.6404 74.9184 39.5983C75.1265 39.5579 75.3282 39.4958 75.5249 39.4134C75.7203 39.3327 75.9069 39.2319 76.0834 39.1126C76.26 38.9948 76.4226 38.8604 76.5739 38.7091C76.7239 38.5578 76.8582 38.3929 76.9761 38.2148C77.0934 38.0383 77.193 37.85 77.2737 37.6533C77.3556 37.4549 77.4161 37.2516 77.4584 37.0413C77.4987 36.833 77.5208 36.6211 77.5208 36.4076H50.9738C50.9725 36.2159 50.9536 36.0276 50.9171 35.8394C50.8799 35.6528 50.8263 35.4712 50.7519 35.2947C50.68 35.1182 50.5905 34.9518 50.4865 34.7937C50.3806 34.634 50.2614 34.4878 50.1265 34.3532C49.9922 34.2188 49.8461 34.0977 49.688 33.9918C49.5317 33.8859 49.3637 33.7968 49.1888 33.7245C49.014 33.6506 48.8341 33.5967 48.6475 33.5598C48.4609 33.5228 48.2743 33.5043 48.0843 33.5043H47.7363L47.7413 39.6623Z" fill="white"/>
<path d="M48.1566 47.7501H72.1345C72.3463 47.7501 72.5562 47.7282 72.7649 47.6878C72.973 47.6459 73.1747 47.5837 73.3714 47.5012C73.5668 47.4205 73.7534 47.3197 73.9299 47.2021C74.1065 47.0826 74.2691 46.9482 74.4191 46.7969C74.5704 46.6456 74.7028 46.4809 74.8226 46.3026C74.9399 46.1261 75.0395 45.9378 75.1202 45.7411C75.2021 45.5428 75.2626 45.3394 75.3049 45.1309C75.3452 44.9208 75.3673 44.7089 75.3673 44.4954H48.1566V47.7501Z" fill="white"/>
<path d="M42.4576 55.8376H67.8256C68.0374 55.8376 68.2473 55.8174 68.456 55.7758C68.6628 55.7336 68.8664 55.6712 69.0612 55.5905C69.2579 55.5085 69.4445 55.4077 69.621 55.2898C69.7975 55.1706 69.9608 55.0357 70.1102 54.8844C70.2596 54.7331 70.3945 54.5686 70.5118 54.3921C70.6297 54.2136 70.7306 54.0258 70.8112 53.8291C70.8919 53.6305 70.9544 53.4269 70.9947 53.2188C71.0363 53.0083 71.0565 52.7968 71.0565 52.5834H45.6904V33H39.8232C39.4838 33 39.1459 33.0167 38.808 33.0504C38.47 33.084 38.1355 33.1344 37.8026 33.2017C37.4697 33.2673 37.1419 33.3513 36.8158 33.4504C36.4913 33.5497 36.1736 33.664 35.8592 33.7951C35.5465 33.9245 35.2406 34.0708 34.9413 34.2322C34.6421 34.3935 34.3512 34.5685 34.0688 34.7584C33.7863 34.9483 33.514 35.1518 33.2517 35.3669C32.9895 35.5838 32.7391 35.8142 32.4987 36.0545C32.2599 36.2966 32.0312 36.5488 31.8161 36.8128C31.601 37.0766 31.3993 37.3507 31.2109 37.6349C31.0226 37.9189 30.8478 38.2114 30.6881 38.5124C30.5283 38.8133 30.3838 39.1226 30.2544 39.4386C30.1249 39.7531 30.0106 40.0741 29.9115 40.4019C29.8139 40.728 29.7315 41.0593 29.6643 41.3937C29.5988 41.7283 29.5483 42.0662 29.5163 42.4059C29.4828 42.7454 29.4659 43.0867 29.4659 43.4279V43.9827H27.7663C27.3863 43.9827 27.0115 44.0197 26.6399 44.0954C26.2702 44.1693 25.9086 44.2785 25.559 44.4248C25.2093 44.5711 24.8782 44.7493 24.562 44.9611C24.2478 45.1729 23.9568 45.4133 23.6895 45.6841C23.4207 45.9529 23.1819 46.2472 22.9718 46.5632C22.7615 46.8809 22.585 47.2155 22.4388 47.5668C22.2942 47.9183 22.185 48.2814 22.111 48.6562C22.037 49.0294 22 49.4076 22 49.7876V55.8376H40.7815C40.7815 55.6245 40.7597 55.4127 40.7194 55.2021C40.6773 54.9941 40.6168 54.7905 40.5344 54.5919C40.4537 54.3952 40.3545 54.2073 40.2368 54.0289C40.1175 53.8524 39.9846 53.6879 39.8333 53.5366C39.6838 53.3853 39.5206 53.2504 39.3441 53.1312C39.1676 53.0133 38.981 52.9128 38.786 52.8305C38.5894 52.7498 38.3876 52.6874 38.1791 52.6455C37.9708 52.6036 37.7605 52.5834 37.5487 52.5834H25.2328V49.7876C25.2328 49.6195 25.2497 49.453 25.2817 49.2901C25.3152 49.1252 25.3623 48.9656 25.4262 48.8109C25.49 48.6562 25.5674 48.5083 25.6599 48.3704C25.7523 48.231 25.8582 48.1014 25.9759 47.9838C26.0936 47.8644 26.2213 47.7585 26.3592 47.6661C26.4971 47.5736 26.6434 47.4946 26.798 47.4306C26.951 47.3668 27.1089 47.3181 27.272 47.2861C27.4352 47.2525 27.5999 47.2357 27.7663 47.2357H32.6987V43.4279C32.6987 43.1926 32.7105 42.9572 32.7323 42.7236C32.7559 42.4899 32.7895 42.2579 32.8349 42.0276C32.882 41.7972 32.9375 41.5702 33.0064 41.345C33.0736 41.1198 33.1526 40.8995 33.2417 40.6826C33.3309 40.4642 33.43 40.2524 33.5409 40.0456C33.6502 39.8388 33.7696 39.6371 33.899 39.442C34.0302 39.247 34.1681 39.0587 34.3159 38.8771C34.4639 38.6955 34.6202 38.5207 34.7867 38.3543C34.9514 38.1896 35.1228 38.0315 35.3044 37.882C35.4844 37.7323 35.671 37.5928 35.8659 37.4634C36.0593 37.3322 36.2593 37.2112 36.4644 37.1003C36.6711 36.9909 36.8814 36.89 37.0965 36.7992C37.3134 36.7102 37.532 36.6312 37.7555 36.5622C37.9791 36.495 38.2043 36.4378 38.433 36.3924C38.6617 36.3453 38.8937 36.3118 39.1257 36.2883C39.3577 36.2664 39.5897 36.2545 39.8232 36.2545H42.4576V55.8376V55.8376Z" fill="white"/>
<path d="M28.3204 67.3075C28.1356 67.3983 27.9456 67.4856 27.749 67.5697C27.5505 67.6555 27.3404 67.7311 27.1168 67.7983C26.8916 67.8622 26.6478 67.9108 26.3838 67.9461C26.1182 67.9814 25.829 68 25.5163 68C24.5162 68 23.7445 67.7781 23.2031 67.3343C22.6652 66.887 22.3962 66.1406 22.3962 65.095C22.3962 64.4898 22.487 63.9215 22.6719 63.3869C22.8602 62.8542 23.1359 62.3883 23.499 61.9883C23.8656 61.5899 24.316 61.2756 24.8506 61.0468C25.3887 60.8148 26.0039 60.6972 26.6999 60.6972C27.026 60.6972 27.3269 60.7208 27.601 60.7643C27.8733 60.8097 28.1204 60.8687 28.3406 60.9393C28.5592 61.0064 28.7576 61.084 28.9324 61.1678C29.1072 61.2485 29.2653 61.3276 29.4098 61.4033L29.0063 63.4811H26.989C26.9975 63.4055 27.0058 63.3097 27.0159 63.1921C27.0293 63.0711 27.0378 62.95 27.0429 62.829C27.0512 62.7045 27.0596 62.5834 27.0697 62.4658C27.0782 62.3448 27.0832 62.2439 27.0832 62.1632C27.0832 62.1008 27.0782 62.0321 27.0697 61.9546C27.0596 61.8739 27.0394 61.7982 27.0092 61.726C26.9824 61.6504 26.937 61.5899 26.8747 61.5445C26.8109 61.4956 26.7285 61.4704 26.6259 61.4704C26.4276 61.4704 26.2493 61.5511 26.088 61.7125C25.9299 61.8707 25.7871 62.0807 25.6575 62.3448C25.5314 62.6102 25.4189 62.9097 25.3214 63.2457C25.2273 63.582 25.1482 63.925 25.0861 64.2745C25.0221 64.6209 24.9734 64.9604 24.9381 65.2968C24.9061 65.6331 24.8909 65.9272 24.8909 66.1778C24.8909 66.255 24.8927 66.3492 24.8977 66.4602C24.9061 66.5727 24.928 66.6802 24.965 66.783C25.0054 66.887 25.0624 66.9762 25.1398 67.0518C25.2205 67.1291 25.3281 67.1663 25.4626 67.1663C25.6913 67.1663 25.9132 67.0232 26.1283 66.7357C26.3469 66.4451 26.5385 65.9322 26.6999 65.1959H28.771L28.3204 67.3075Z" fill="white"/>
<path d="M32.7665 63.8175H32.8405C32.9833 63.6744 33.1465 63.5451 33.3313 63.4272C33.4877 63.3197 33.6743 63.2255 33.8896 63.1448C34.108 63.0641 34.3536 63.0238 34.6224 63.0238C35.0075 63.0238 35.3285 63.1231 35.5841 63.3197C35.8396 63.518 35.9674 63.7888 35.9674 64.1333C35.9674 64.2376 35.9556 64.3536 35.9337 64.4832C35.9102 64.6143 35.8833 64.7521 35.853 64.8999C35.8212 65.0446 35.7874 65.1893 35.7521 65.3371C35.7203 65.4818 35.6934 65.6129 35.6714 65.7339L35.2008 67.9127H32.9346L33.5466 64.9941C33.56 64.8967 33.5769 64.7974 33.6004 64.6982C33.6223 64.5957 33.6339 64.5034 33.6339 64.4227C33.6339 64.3117 33.6037 64.219 33.5466 64.1469C33.4927 64.0762 33.4087 64.0394 33.2978 64.0394C33.1666 64.0394 33.0388 64.0898 32.9145 64.1872C32.7934 64.2865 32.6993 64.3722 32.632 64.4428L31.8924 67.9127H29.606L31.1997 60.3946H33.4927L32.7665 63.8175Z" fill="white"/>
<path d="M38.9935 67.9127H36.7206L37.7427 63.0978H40.0359L38.9935 67.9127ZM40.3249 61.6318C40.3249 61.8067 40.288 61.958 40.2174 62.0826C40.1501 62.2086 40.0576 62.3161 39.9416 62.4053C39.824 62.4961 39.6894 62.5632 39.5381 62.6071C39.3903 62.6525 39.2373 62.6742 39.0809 62.6742C38.7851 62.6742 38.5363 62.6052 38.3345 62.4658C38.1328 62.3227 38.0319 62.0993 38.0319 61.7932C38.0319 61.6286 38.0655 61.4805 38.1328 61.3494C38.2001 61.2201 38.2909 61.1123 38.4084 61.0266C38.5244 60.9428 38.659 60.8772 38.8119 60.8318C38.9632 60.788 39.1213 60.7643 39.2827 60.7643C39.5735 60.7643 39.8206 60.8368 40.0223 60.9796C40.224 61.1193 40.3249 61.3361 40.3249 61.6318Z" fill="white"/>
<path d="M43.671 63.8175C43.8274 63.6693 44.0023 63.5316 44.1955 63.4004C44.3654 63.298 44.5672 63.2022 44.8007 63.1114C45.0327 63.0222 45.2917 62.9768 45.5741 62.9768C45.9591 62.9768 46.2802 63.0761 46.5356 63.2728C46.7913 63.4711 46.9189 63.7418 46.9189 64.0863C46.9189 64.1856 46.9073 64.3048 46.8854 64.4428C46.8619 64.5771 46.8349 64.7218 46.8047 64.8731C46.7727 65.0209 46.7391 65.1722 46.7038 65.3235C46.6718 65.4767 46.645 65.6129 46.6231 65.734L46.1523 67.9127H43.8863L44.4981 64.9942C44.5117 64.8968 44.5284 64.7975 44.552 64.6982C44.5738 64.5957 44.5856 64.5034 44.5856 64.4227C44.5856 64.3117 44.5553 64.2191 44.4981 64.1469C44.4444 64.0763 44.3604 64.0394 44.2494 64.0394C44.1183 64.0394 43.9905 64.0898 43.8661 64.1872C43.7451 64.2865 43.6508 64.3672 43.5837 64.4293L42.8439 67.9127H40.5577L41.5797 63.0979H43.4021L43.6039 63.8175H43.671V63.8175Z" fill="white"/>
<path d="M48.5935 63.5149C48.9735 63.3264 49.3634 63.1902 49.7635 63.1045C50.1618 63.0206 50.6075 62.9768 51.1018 62.9768C51.5758 62.9768 51.9705 63.0156 52.2851 63.0912C52.5978 63.1634 52.8468 63.2709 53.0315 63.414C53.22 63.5584 53.3492 63.7267 53.4217 63.9183C53.4974 64.1116 53.5358 64.3319 53.5358 64.5771C53.5358 64.7218 53.5257 64.8766 53.5087 65.0411C53.4904 65.2025 53.4703 65.3406 53.4482 65.4515L52.9237 67.9127H51.1219L50.9202 67.1997H50.8527C50.6138 67.4604 50.3364 67.6605 50.0187 67.7983C49.6997 67.9329 49.3836 68 49.0709 68C48.891 68 48.7163 67.9732 48.5464 67.9193C48.3749 67.8704 48.2236 67.7916 48.0891 67.6838C47.9547 67.5764 47.8471 67.4402 47.7664 67.2738C47.6824 67.1039 47.6385 66.9005 47.6385 66.6619C47.6385 66.2717 47.7445 65.9659 47.9547 65.7406C48.1698 65.512 48.449 65.3406 48.7952 65.2227C49.1449 65.1067 49.5366 65.0345 49.9721 65.0077C50.4108 64.9774 50.8496 64.9604 51.2896 64.9604C51.3035 64.8848 51.3199 64.7773 51.3438 64.6376C51.3653 64.4999 51.3773 64.3789 51.3773 64.2745C51.3773 64.1402 51.3401 64.0173 51.2695 63.9048C51.2026 63.7888 51.0564 63.7298 50.8326 63.7298C50.5672 63.7298 50.3717 63.8074 50.2475 63.9587C50.1265 64.1116 50.0477 64.2947 50.0124 64.51H48.3783L48.5935 63.5149ZM51.1686 65.4849H50.9669C50.7468 65.4849 50.5602 65.5152 50.4089 65.5726C50.2557 65.6261 50.1334 65.6986 50.0389 65.7875C49.9449 65.8783 49.8743 65.9792 49.8308 66.0901C49.7905 66.203 49.7703 66.3155 49.7703 66.4265C49.7703 66.6065 49.814 66.7407 49.9046 66.8299C49.9985 66.9207 50.1082 66.9645 50.2343 66.9645C50.3907 66.9645 50.5451 66.9091 50.6983 66.7962C50.8546 66.6853 50.9505 66.534 50.987 66.3458L51.1686 65.4849Z" fill="white"/>
<path d="M61.3325 61.6589H59.5305L58.199 67.9127H55.7848L57.1163 61.6589H55.3344L55.5361 60.8047H61.5277L61.3325 61.6589Z" fill="white"/>
<path d="M64.8121 62.9768C65.6998 62.9768 66.3453 63.1347 66.7488 63.4474C67.174 63.7752 67.3874 64.3199 67.3874 65.0815C67.3874 65.5524 67.3086 65.976 67.1523 66.3524C66.994 66.7291 66.7756 67.0418 66.4932 67.2873C65.9233 67.763 65.1028 68 64.032 68C63.1125 68 62.455 67.8251 62.0616 67.4755C61.6348 67.1124 61.423 66.5642 61.423 65.8279C61.423 65.3437 61.5204 64.905 61.7187 64.51C61.9154 64.1166 62.1997 63.7888 62.5729 63.5281C63.1191 63.1618 63.8656 62.9768 64.8121 62.9768ZM64.0522 67.24C64.2404 67.24 64.4017 67.1376 64.5363 66.9308C64.6741 66.7206 64.785 66.4652 64.8657 66.1642C64.9499 65.86 65.0139 65.5455 65.0542 65.2227C65.0946 64.8968 65.1147 64.6143 65.1147 64.3754C65.1147 64.1705 65.0946 64.0123 65.0542 63.9048C65.0139 63.7938 64.9262 63.7368 64.792 63.7368C64.5902 63.7368 64.4153 63.8477 64.2675 64.0662C64.1228 64.2815 64.0068 64.5402 63.9176 64.8394C63.8268 65.1354 63.7631 65.4414 63.7228 65.7541C63.6824 66.0684 63.6623 66.3221 63.6623 66.5138C63.6623 66.9979 63.7915 67.24 64.0522 67.24Z" fill="white"/>
</svg>
