<svg width="60" height="60" viewBox="0 0 60 60" fill="none" xmlns="http://www.w3.org/2000/svg">
<g clip-path="url(#clip0_105_1567)">
<path fill-rule="evenodd" clip-rule="evenodd" d="M0.0195256 31.0029C0.0195256 26.0981 0.0435731 21.193 0.000176809 16.2884C-0.00897819 15.2524 0.336358 14.6721 1.27776 14.2054C10.509 9.62855 19.7221 5.01526 28.9278 0.387335C29.6917 0.00330171 30.3219 -0.000664532 31.0876 0.3841C40.3175 5.02277 49.557 9.6424 58.8081 14.239C59.6719 14.6681 60.0022 15.2258 59.9998 16.1871C59.9735 26.0823 59.9728 35.9775 60 45.8727C60.003 46.9011 59.6228 47.4554 58.6833 47.8549C49.495 51.7603 40.3185 55.6931 31.1486 59.641C30.3652 59.9783 29.6936 59.9968 28.8965 59.6531C19.6896 55.682 10.4729 51.7335 1.24621 47.8087C0.344477 47.4252 -0.000615691 46.8757 0.00530431 45.9097C0.0359443 40.9409 0.0195256 35.9719 0.0195256 31.0029ZM28.6885 56.6564C28.6885 56.3082 28.6885 56.0778 28.6885 55.8472C28.6885 47.1046 28.6809 38.3619 28.7048 29.6196C28.7064 29.0035 28.4977 28.7352 27.957 28.5048C19.9882 25.1091 12.0283 21.6924 4.06567 18.2824C3.62579 18.094 3.17993 17.9194 2.69256 17.7203C2.67864 17.9525 2.66241 18.0983 2.66235 18.2442C2.66119 27.1574 2.66528 36.0706 2.64984 44.9836C2.64904 45.4426 2.85046 45.5973 3.221 45.7554C9.25036 48.3283 15.2737 50.9149 21.2991 53.4967C23.7217 54.5349 26.1458 55.5692 28.6885 56.6564ZM49.1285 21.2421C48.8385 21.3591 48.6436 21.4334 48.4519 21.5154C42.9517 23.8682 37.4551 26.2293 31.946 28.5613C31.4725 28.7618 31.3236 28.9887 31.3245 29.494C31.3389 38.3018 31.3324 47.1095 31.332 55.9172C31.332 56.1387 31.3511 56.3601 31.3634 56.6273C31.5482 56.5597 31.6479 56.5283 31.7435 56.4874C40.099 52.9059 48.4518 49.3184 56.8149 45.7546C57.2982 45.5487 57.3485 45.2638 57.3481 44.8243C57.339 36.0377 57.3417 27.2514 57.3401 18.4648C57.34 18.2428 57.3212 18.0209 57.3076 17.7251C55.6121 18.4485 54.0171 19.1524 52.4012 19.8043C51.925 19.9963 51.7903 20.2493 51.7927 20.7491C51.8137 25.0784 51.8074 29.4077 51.8033 33.7369C51.802 35.2535 50.9005 35.7975 49.5319 35.1162C48.7122 34.708 47.8888 34.3065 47.0817 33.8745C46.7679 33.7065 46.5702 33.728 46.3135 33.9937C45.3498 34.9899 44.3495 35.9504 43.3801 36.9413C42.9144 37.4174 42.3905 37.6126 41.7651 37.3549C41.154 37.1033 40.9625 36.5914 40.9646 35.9585C40.9736 33.3567 40.9626 30.7548 40.9714 28.1531C40.9746 27.2104 41.4581 26.6643 42.2568 26.648C43.0868 26.6312 43.6017 27.1859 43.6111 28.1508C43.6244 29.5156 43.6133 30.8806 43.6171 32.2455C43.6175 32.4203 43.6442 32.5951 43.673 32.9417C44.2025 32.3926 44.6096 31.9596 45.0284 31.5383C45.9999 30.5609 46.265 30.5195 47.4866 31.1182C48.0124 31.3759 48.5409 31.6279 49.1285 31.9117C49.1285 28.3257 49.1285 24.8387 49.1285 21.2421ZM40.0513 22.2144C39.7296 22.0401 39.5336 21.9263 39.3311 21.8251C36.5515 20.4356 33.7739 19.0418 30.9883 17.6641C30.3945 17.3704 29.9283 17.0052 29.9424 16.2817C29.9563 15.5581 30.4293 15.2043 31.0428 14.9463C32.9852 14.1293 34.9308 13.3179 36.8518 12.4528C37.6 12.1157 38.2413 12.1375 38.972 12.5091C42.4637 14.2851 45.9734 16.0259 49.4839 17.7648C49.6852 17.8646 49.9891 17.9309 50.1793 17.8525C51.9271 17.1332 53.6602 16.3785 55.464 15.6057C55.2624 15.4825 55.1271 15.3853 54.9797 15.3117C46.8301 11.2382 38.6778 7.17011 30.5342 3.08478C30.1418 2.88788 29.8529 2.90937 29.4767 3.09778C21.3679 7.16089 13.253 11.2116 5.13977 15.2657C4.95764 15.3566 4.78051 15.4576 4.56628 15.5726C4.66918 15.6361 4.703 15.6633 4.74145 15.6798C13.0539 19.2449 21.3661 22.8105 29.683 26.3656C29.8579 26.4403 30.1151 26.4634 30.2837 26.3921C33.4965 25.0306 36.7018 23.6513 40.0513 22.2144ZM46.608 19.3994C46.5009 19.3068 46.4631 19.2586 46.4137 19.2336C43.6559 17.8508 40.8988 16.4659 38.1335 15.0981C37.9686 15.0165 37.7086 15.0065 37.5384 15.0756C36.5353 15.4826 35.5457 15.923 34.5055 16.372C34.6256 16.4591 34.7019 16.5313 34.7916 16.5769C37.4852 17.9465 40.179 19.3157 42.878 20.6744C43.0345 20.7532 43.2676 20.819 43.4121 20.7603C44.4692 20.3322 45.5129 19.8706 46.608 19.3994Z" fill="url(#paint0_linear_105_1567)"/>
<path fill-rule="evenodd" clip-rule="evenodd" d="M11.4244 41.5561C11.3151 41.5211 11.0613 41.4715 10.8372 41.3617C9.5587 40.7345 8.28343 40.1006 7.01469 39.4537C6.21684 39.047 5.94499 38.3017 6.30949 37.5989C6.69127 36.8626 7.38609 36.6603 8.20457 37.0672C9.51799 37.7203 10.8318 38.3729 12.133 39.0495C12.7652 39.3783 13.0099 39.9626 12.8493 40.5974C12.7082 41.1552 12.1698 41.5587 11.4244 41.5561Z" fill="url(#paint1_linear_105_1567)"/>
<path fill-rule="evenodd" clip-rule="evenodd" d="M13.0194 44.2461C12.8817 45.3076 11.9447 45.9531 11.044 45.5382C9.61656 44.8805 8.21221 44.1694 6.82207 43.4354C6.15782 43.0847 5.97893 42.3042 6.32207 41.6663C6.67198 41.0157 7.31249 40.7561 7.99938 41.0836C9.41881 41.7603 10.8339 42.4514 12.2079 43.2142C12.5607 43.41 12.7532 43.8944 13.0194 44.2461Z" fill="url(#paint2_linear_105_1567)"/>
</g>
<defs>
<linearGradient id="paint0_linear_105_1567" x1="0.703125" y1="30.0518" x2="60" y2="30.0518" gradientUnits="userSpaceOnUse">
<stop stop-color="#F97900"/>
<stop offset="1" stop-color="#FA9800"/>
</linearGradient>
<linearGradient id="paint1_linear_105_1567" x1="6.22927" y1="39.2124" x2="12.8972" y2="39.2124" gradientUnits="userSpaceOnUse">
<stop stop-color="#F97900"/>
<stop offset="1" stop-color="#FA9800"/>
</linearGradient>
<linearGradient id="paint2_linear_105_1567" x1="6.23206" y1="43.3077" x2="13.0194" y2="43.3077" gradientUnits="userSpaceOnUse">
<stop stop-color="#F97900"/>
<stop offset="1" stop-color="#FA9800"/>
</linearGradient>
<clipPath id="clip0_105_1567">
<rect width="60" height="60" fill="white"/>
</clipPath>
</defs>
</svg>
