<svg width="58" height="58" viewBox="0 0 58 58" fill="none" xmlns="http://www.w3.org/2000/svg">
<g filter="url(#filter0_d_105_1282)">
<circle cx="29" cy="29" r="25" fill="white"/>
</g>
<g clip-path="url(#clip0_105_1282)">
<path fill-rule="evenodd" clip-rule="evenodd" d="M54.0002 27.447C54.0002 28.4883 54.0002 29.5295 54.0002 30.5709C53.9725 30.6965 53.9292 30.821 53.9195 30.948C53.5874 35.2498 52.2568 39.2204 49.8391 42.7919C45.8527 48.6803 40.3499 52.3069 33.3418 53.6126C32.4187 53.7846 31.48 53.873 30.5485 54C29.5063 54 28.464 54 27.4216 54C26.9566 53.9395 26.492 53.8743 26.0262 53.8191C21.1448 53.2387 16.7616 51.4265 13.0372 48.2364C6.23482 42.4095 3.23148 34.9806 4.1671 26.0624C4.77073 20.3091 7.19185 15.3286 11.3499 11.3229C18.2106 4.71342 26.3802 2.57022 35.6061 4.92537C44.854 7.2861 52.0774 15.3253 53.6193 24.7001C53.7692 25.612 53.8742 26.5312 54.0002 27.447ZM28.6538 36.9212C30.6707 38.4064 32.6473 39.865 34.6274 41.319C35.9309 42.2762 36.8556 41.9201 37.1927 40.3363C38.4577 34.3931 39.7279 28.4511 40.9789 22.5049C41.1418 21.7314 41.2898 20.9365 41.2884 20.1518C41.2869 19.3504 40.5964 18.9228 39.8125 19.1049C39.6078 19.1524 39.4084 19.2279 39.2117 19.3036C33.0682 21.6672 26.9247 24.0306 20.7828 26.3983C18.8721 27.1349 16.9614 27.8719 15.0614 28.6352C14.6276 28.8093 14.135 29.0678 14.1713 29.6197C14.208 30.1781 14.7434 30.3243 15.1916 30.4662C17.0819 31.0643 18.98 31.6383 20.8675 32.2449C21.2002 32.3517 21.4429 32.3012 21.7256 32.1224C24.9703 30.0707 28.2216 28.0292 31.4713 25.9852C32.8345 25.1278 34.1968 24.2689 35.5624 23.4151C35.8752 23.2195 36.1968 23.0208 36.6743 23.3022C36.4628 23.5233 36.3009 23.7153 36.1163 23.8821C32.517 27.134 28.9192 30.3874 25.3073 33.6252C24.9553 33.9409 24.7796 34.2544 24.7625 34.7398C24.7221 35.893 24.6065 37.0436 24.5263 38.1957C24.4749 38.9335 24.4322 39.6719 24.3857 40.4101C24.4325 40.4511 24.4793 40.4921 24.5262 40.5333C24.8715 40.3211 25.2617 40.1577 25.554 39.8881C26.5945 38.9291 27.6016 37.9339 28.6538 36.9212Z" fill="#3AA3E1"/>
</g>
<defs>
<filter id="filter0_d_105_1282" x="0" y="0" width="58" height="58" filterUnits="userSpaceOnUse" color-interpolation-filters="sRGB">
<feFlood flood-opacity="0" result="BackgroundImageFix"/>
<feColorMatrix in="SourceAlpha" type="matrix" values="0 0 0 0 0 0 0 0 0 0 0 0 0 0 0 0 0 0 127 0" result="hardAlpha"/>
<feOffset/>
<feGaussianBlur stdDeviation="2"/>
<feComposite in2="hardAlpha" operator="out"/>
<feColorMatrix type="matrix" values="0 0 0 0 0 0 0 0 0 0 0 0 0 0 0 0 0 0 0.2 0"/>
<feBlend mode="normal" in2="BackgroundImageFix" result="effect1_dropShadow_105_1282"/>
<feBlend mode="normal" in="SourceGraphic" in2="effect1_dropShadow_105_1282" result="shape"/>
</filter>
<clipPath id="clip0_105_1282">
<rect width="50" height="50" fill="white" transform="translate(4 4)"/>
</clipPath>
</defs>
</svg>
