<svg width="60" height="60" viewBox="0 0 60 60" fill="none" xmlns="http://www.w3.org/2000/svg">
<path fill-rule="evenodd" clip-rule="evenodd" d="M7.14806 52.267C6.28399 52.267 5.41387 52.267 4.54388 52.267C3.49432 52.2668 2.44451 52.28 1.3952 52.2622C0.474968 52.2465 0.0416793 51.8015 0.00396054 50.8831C-0.00324196 50.7084 0.00158054 50.5332 0.00158054 50.3583C0.00151929 39.6221 0.00139804 28.8858 0.00164179 18.1496C0.00170304 16.5416 0.296319 16.254 1.93072 16.2514C3.13311 16.2496 4.3355 16.2437 5.5379 16.2374C5.57842 16.2372 5.61877 16.2132 5.75506 16.1698C5.75506 15.9691 5.755 15.7379 5.75506 15.5064C5.75506 12.7732 5.77001 10.0399 5.74603 7.30677C5.7387 6.47657 6.057 5.98304 6.83526 5.65308C10.6539 4.03461 14.4579 2.38166 18.2606 0.726077C18.7801 0.49988 19.2498 0.494875 19.7689 0.720034C23.6138 2.38733 27.4622 4.04676 31.3165 5.6919C31.9862 5.9776 32.285 6.42444 32.2809 7.15467C32.264 10.1939 32.2966 13.2336 32.267 16.2727C32.2262 20.4397 30.5349 23.8322 27.3503 26.4948C24.9518 28.5 22.5497 30.501 20.1468 32.5006C19.2364 33.2584 18.8138 33.2581 17.9159 32.5092C15.4144 30.4227 12.9065 28.3437 10.4161 26.2441C8.20476 24.3798 6.78814 22.0164 6.13329 19.2041C6.04308 18.8168 5.91674 18.6545 5.49584 18.6675C4.49645 18.6984 3.49547 18.6775 2.45751 18.6775C2.45751 25.8808 2.45751 33.0188 2.45751 40.2001C13.6162 40.2001 24.7573 40.2001 35.9532 40.2001C35.9532 33.0652 35.9532 25.9298 35.9532 18.7039C34.805 18.7039 33.6409 18.7039 32.3597 18.7039C32.3597 17.9462 32.3375 17.2752 32.3791 16.6082C32.3871 16.4818 32.647 16.2714 32.7934 16.269C34.2362 16.2448 35.68 16.2316 37.1223 16.267C37.983 16.2882 38.3927 16.7766 38.394 17.681C38.399 20.939 38.3961 24.197 38.3961 27.4551C38.3961 27.6939 38.3961 27.9327 38.3961 28.2694C38.6606 28.2694 38.8909 28.2694 39.1212 28.2694C43.1664 28.2694 47.2117 28.2784 51.2568 28.2603C51.9089 28.2573 52.365 28.4731 52.756 28.9998C55.01 32.0359 57.2982 35.0466 59.5395 38.092C59.8027 38.4497 59.9726 38.9659 59.9764 39.4105C60.0105 43.1711 59.999 46.9323 59.9939 50.6932C59.9923 51.8547 59.5731 52.2611 58.3978 52.266C57.3526 52.2705 56.3074 52.2668 55.2162 52.2668C55.0978 54.535 54.2604 56.4149 52.5188 57.8391C51.1993 58.9182 49.6711 59.4319 47.975 59.446C44.8408 59.472 41.0383 57.1305 40.7357 52.3022C34.3843 52.3022 28.0305 52.3022 21.6255 52.3022C21.5072 54.5566 20.6544 56.4523 18.8818 57.8778C17.5539 58.9456 16.0206 59.4489 14.3245 59.4446C11.0613 59.4363 7.41741 56.9542 7.14806 52.267ZM19.0259 30.3182C21.5951 28.1556 24.165 26.1147 26.5907 23.9145C28.7786 21.9299 29.8329 19.3403 29.8674 16.3784C29.8992 13.6462 29.8683 10.9133 29.8854 8.18091C29.8876 7.81775 29.7743 7.64643 29.4405 7.50397C26.1085 6.08191 22.7872 4.63514 19.4522 3.22028C19.2089 3.11701 18.8453 3.11817 18.6017 3.22156C15.2673 4.63721 11.9467 6.08551 8.61443 7.50611C8.27312 7.65168 8.16613 7.8335 8.16808 8.18805C8.1834 10.9862 8.1455 13.785 8.19561 16.5821C8.24688 19.4481 9.30596 21.9551 11.4164 23.8737C13.8552 26.0907 16.4432 28.1438 19.0259 30.3182ZM38.4325 49.8414C39.1843 49.8414 39.9021 49.8131 40.6163 49.8517C41.0799 49.8767 41.279 49.7029 41.4807 49.2838C42.746 46.6555 44.8455 45.1609 47.7749 45.0875C50.9308 45.0085 53.1786 46.5238 54.5563 49.3561C54.6475 49.5436 54.8411 49.807 54.9989 49.8156C55.8397 49.8613 56.6844 49.837 57.5196 49.837C57.5196 46.5903 57.5196 43.4371 57.5196 40.2434C57.2224 40.2434 56.9844 40.2434 56.7465 40.2434C53.532 40.2434 50.3175 40.2455 47.1028 40.2423C45.9962 40.2411 45.6041 39.8489 45.6027 38.7446C45.5992 36.2955 45.6016 33.8463 45.6014 31.3972C45.6014 31.1657 45.6014 30.9341 45.6014 30.6876C43.1597 30.6876 40.8091 30.6876 38.4325 30.6876C38.4325 37.0751 38.4325 43.4262 38.4325 49.8414ZM35.9725 42.7148C24.784 42.7148 13.6307 42.7148 2.4699 42.7148C2.4699 45.1071 2.4699 47.4529 2.4699 49.8416C4.00524 49.8416 5.48992 49.8237 6.97375 49.8519C7.44683 49.8608 7.67876 49.7328 7.89983 49.2749C9.20434 46.5726 11.3764 45.0901 14.3909 45.0835C17.407 45.0772 19.5804 46.5551 20.8977 49.2517C21.1117 49.6901 21.3176 49.8552 21.8082 49.853C26.2895 49.8334 30.771 49.8419 35.2523 49.84C35.4844 49.8398 35.7163 49.8189 36.008 49.8046C36.008 47.6057 36.0088 45.4683 36.0066 43.3306C36.0065 43.1387 35.986 42.9469 35.9725 42.7148ZM14.3622 57.0367C17.0532 57.0468 19.218 54.8989 19.2095 52.2274C19.2011 49.6335 17.0424 47.4679 14.4456 47.4476C11.8059 47.4272 9.63744 49.5657 9.61645 52.2102C9.59521 54.8743 11.7118 57.0271 14.3622 57.0367ZM47.9813 57.0367C50.6434 57.0342 52.7775 54.9196 52.7983 52.2634C52.8188 49.6533 50.6274 47.4514 48.0056 47.448C45.364 47.4445 43.209 49.5958 43.2058 52.2397C43.2026 54.9067 45.3257 57.0393 47.9813 57.0367ZM48.0328 30.6519C48.0328 33.0924 48.0328 35.4554 48.0328 37.8031C50.8086 37.8031 53.5369 37.8031 56.3474 37.8031C54.592 35.4608 52.8966 33.1904 51.1841 30.9332C51.0736 30.7875 50.8321 30.6704 50.6473 30.6642C49.7982 30.6359 48.9475 30.6519 48.0328 30.6519Z" fill="url(#paint0_linear_105_1545)"/>
<path fill-rule="evenodd" clip-rule="evenodd" d="M17.5001 16.125C19.1124 14.5094 20.6536 12.9649 22.1952 11.4208C22.365 11.2506 22.5283 11.0728 22.7087 10.9146C23.2581 10.4332 23.9432 10.4382 24.4116 10.9177C24.8633 11.38 24.8672 12.0381 24.4175 12.573C24.3333 12.6732 24.2375 12.7636 24.1448 12.8564C22.3062 14.6956 20.4686 16.5359 18.6274 18.3728C17.7829 19.2154 17.2475 19.2135 16.4034 18.3719C15.5368 17.5078 14.668 16.6457 13.8103 15.7727C13.2006 15.1522 13.1521 14.4313 13.6636 13.9235C14.1779 13.4127 14.8828 13.466 15.5067 14.0869C16.1569 14.734 16.7903 15.3978 17.5001 16.125Z" fill="url(#paint1_linear_105_1545)"/>
<defs>
<linearGradient id="paint0_linear_105_1545" x1="0.703124" y1="30.0511" x2="59.9999" y2="30.0511" gradientUnits="userSpaceOnUse">
<stop stop-color="#F97900"/>
<stop offset="1" stop-color="#FA9800"/>
</linearGradient>
<linearGradient id="paint1_linear_105_1545" x1="13.4473" y1="14.7872" x2="24.7526" y2="14.7872" gradientUnits="userSpaceOnUse">
<stop stop-color="#F97900"/>
<stop offset="1" stop-color="#FA9800"/>
</linearGradient>
</defs>
</svg>
